<svg width="284" height="73" viewBox="0 0 284 73" fill="none" xmlns="http://www.w3.org/2000/svg">
<path d="M29.0607 16.4777C30.034 14.9482 30.5207 13.2101 30.5207 11.472C30.5207 9.73394 30.0341 7.99586 29.1303 6.53587L25.5846 0.834961L1.45999 39.4899C0.486662 41.0194 0 42.7575 0 44.4956C0 46.2336 0.486663 47.9717 1.39047 49.4317L4.93615 55.1326L29.0607 16.4777Z" fill="#E85858"/>
<path d="M49.0139 48.3883C49.9872 46.8588 50.4739 45.1208 50.4739 43.3827C50.4739 41.6446 49.9872 39.9065 49.0834 38.4465L45.5377 32.7456L30.5207 56.7311C29.5474 58.2606 29.0607 59.9987 29.0607 61.7368C29.0607 63.4749 29.5474 65.213 30.4512 66.673L33.9969 72.3739L49.0139 48.3883Z" fill="#E85858"/>
<path d="M39.0721 22.4563L35.5264 16.7554L10.5675 56.7313C9.59421 58.2608 9.10754 59.9988 9.10754 61.7369C9.10754 63.475 9.59421 65.2131 10.498 66.6731L14.0437 72.374L39.0025 32.3981C39.9759 30.8686 40.4625 29.1305 40.4625 27.3924C40.4625 25.6544 39.9759 23.9163 39.0721 22.4563Z" fill="#E85858"/>
<path d="M82.6632 0.834961H90.4498C92.5355 0.834961 94.204 1.46067 95.2469 2.434C96.0116 3.19875 96.4288 4.17208 96.4288 5.35397V5.4235C96.4288 7.78729 94.9688 9.03871 93.5088 9.66442C95.664 10.2901 97.4021 11.5415 97.4021 14.1139V14.1834C97.4021 17.312 94.7602 19.1891 90.7278 19.1891H82.5936V0.834961H82.6632ZM94.3431 5.63207C94.3431 3.82446 92.8831 2.64257 90.3107 2.64257H84.7489V8.96918H90.1717C92.605 8.96918 94.3431 7.85681 94.3431 5.63207ZM90.4498 10.8463H84.6793V17.312H90.8669C93.6478 17.312 95.3859 16.0606 95.3859 14.0444V13.9749C95.3164 11.9587 93.6478 10.8463 90.4498 10.8463Z" fill="white"/>
<path d="M100.183 12.4449C100.183 7.9954 103.381 5.35352 106.649 5.35352C109.152 5.35352 110.82 6.74398 111.863 8.20397V5.63161H113.879V19.1886H111.863V16.4772C110.751 18.0763 109.152 19.4667 106.649 19.4667C103.381 19.4667 100.183 16.8944 100.183 12.4449ZM111.863 12.3754C111.863 9.17729 109.499 7.0916 106.996 7.0916C104.354 7.0916 102.199 9.03825 102.199 12.3058V12.3754C102.199 15.5734 104.424 17.5896 106.996 17.5896C109.499 17.6591 111.863 15.5039 111.863 12.3754Z" fill="white"/>
<path d="M118.051 5.63161H120.067V7.9954C120.97 6.53541 122.361 5.35352 124.725 5.35352C127.992 5.35352 129.939 7.57826 129.939 10.7763V19.1886H127.923V11.263C127.923 8.76016 126.532 7.16112 124.169 7.16112C121.805 7.16112 120.136 8.82968 120.136 11.402V19.1191H118.12V5.63161H118.051Z" fill="white"/>
<path d="M133.971 0H135.988V13.2094L143.287 5.56186H145.79L140.089 11.4018L145.929 19.1189H143.496L138.629 12.7923L135.848 15.5732V19.1189H133.832V0H133.971Z" fill="white"/>
<path d="M64.5176 67.0213L70.0099 60.9032C72.3042 63.406 74.4594 64.866 77.2403 64.866C80.5079 64.866 82.5936 62.8499 82.5936 58.2613V32.6768H91.5621V58.6785C91.5621 63.406 90.1717 66.8822 87.8079 69.3155C85.3746 71.7488 81.7594 73.0003 77.4489 73.0003C71.3309 73.0003 67.2985 70.2193 64.5176 67.0213Z" fill="white"/>
<path d="M97.4021 57.2185V57.0794C97.4021 46.929 104.007 41.3672 111.237 41.3672C115.826 41.3672 118.676 43.4529 120.692 45.8862V41.9234H129.313V72.305H120.692V67.9251C118.607 70.7755 115.687 72.8612 111.237 72.8612C104.146 73.0003 97.4021 67.4384 97.4021 57.2185ZM120.831 57.2185V57.0794C120.831 52.0042 117.494 48.6671 113.462 48.6671C109.43 48.6671 106.023 51.9347 106.023 57.0794V57.2185C106.023 62.2937 109.43 65.6308 113.462 65.6308C117.494 65.6308 120.831 62.2937 120.831 57.2185Z" fill="white"/>
<path d="M136.752 31.0083H145.373V53.0472L155.454 41.993H165.813L154.272 53.951L166.23 72.3746H156.219L148.432 59.8605L145.373 63.1281V72.3746H136.752V31.0083Z" fill="white"/>
<path d="M167.273 57.2185V57.0794C167.273 46.929 173.878 41.3672 181.108 41.3672C185.697 41.3672 188.547 43.4529 190.563 45.8862V41.9234H199.254V72.305H190.633V67.9251C188.547 70.7755 185.627 72.8612 181.178 72.8612C174.017 73.0003 167.273 67.4384 167.273 57.2185ZM190.702 57.2185V57.0794C190.702 52.0042 187.365 48.6671 183.333 48.6671C179.301 48.6671 175.894 51.9347 175.894 57.0794V57.2185C175.894 62.2937 179.301 65.6308 183.333 65.6308C187.365 65.6308 190.702 62.2937 190.702 57.2185Z" fill="white"/>
<path d="M206.693 41.9928H215.314V48.1108C217.052 43.9394 219.902 41.1585 225.047 41.4366V50.4746H224.56C218.859 50.4746 215.314 53.9508 215.314 61.1812V72.444H206.693V41.9928Z" fill="white"/>
<path d="M231.512 63.7534V49.3621H227.897V41.9927H231.512V34.2061H240.133V41.9927H247.294V49.3621H240.133V62.363C240.133 64.3792 240.968 65.283 242.914 65.283C244.513 65.283 245.904 64.8658 247.155 64.1706V71.1229C245.348 72.2353 243.262 72.861 240.342 72.861C235.128 72.9305 231.512 70.8448 231.512 63.7534Z" fill="white"/>
<path d="M251.188 57.2185V57.0794C251.188 46.929 257.792 41.3672 265.023 41.3672C269.611 41.3672 272.462 43.4529 274.478 45.8862V41.9234H283.099V72.305H274.478V67.9251C272.392 70.7755 269.472 72.8612 265.023 72.8612C257.931 73.0003 251.188 67.4384 251.188 57.2185ZM274.617 57.2185V57.0794C274.617 52.0042 271.28 48.6671 267.247 48.6671C263.215 48.6671 259.808 51.9347 259.808 57.0794V57.2185C259.808 62.2937 263.215 65.6308 267.247 65.6308C271.21 65.6308 274.617 62.2937 274.617 57.2185Z" fill="white"/>
</svg>
