<svg width="211" height="55" viewBox="0 0 211 55" fill="none" xmlns="http://www.w3.org/2000/svg">
<path d="M21.6391 12.2694C22.3639 11.1305 22.7262 9.83632 22.7262 8.54212C22.7262 7.24791 22.3639 5.95371 21.6909 4.86657L19.0507 0.621582L1.08713 29.4047C0.362377 30.5436 0 31.8378 0 33.132C0 34.4262 0.362377 35.7204 1.03536 36.8075L3.67554 41.0525L21.6391 12.2694Z" fill="#FF3E17"/>
<path d="M36.4966 36.0311C37.2213 34.8922 37.5837 33.598 37.5837 32.3038C37.5837 31.0096 37.2213 29.7154 36.5483 28.6283L33.9082 24.3833L22.7262 42.2433C22.0015 43.3822 21.6391 44.6764 21.6391 45.9706C21.6391 47.2648 22.0015 48.559 22.6745 49.6462L25.3146 53.8912L36.4966 36.0311Z" fill="#FF3E17"/>
<path d="M29.0937 16.7216L26.4535 12.4766L7.86877 42.2433C7.14401 43.3822 6.78163 44.6764 6.78163 45.9706C6.78163 47.2648 7.14401 48.559 7.817 49.6461L10.4572 53.8911L29.042 24.1244C29.7667 22.9855 30.1291 21.6913 30.1291 20.3971C30.1291 19.1029 29.7667 17.8087 29.0937 16.7216Z" fill="#FF3E17"/>
<path d="M61.5524 0.621582H67.3504C68.9034 0.621582 70.1459 1.0875 70.9224 1.81225C71.4919 2.3817 71.8025 3.10646 71.8025 3.98651V4.03828C71.8025 5.7984 70.7153 6.73023 69.6282 7.19614C71.233 7.66206 72.5272 8.59388 72.5272 10.5093V10.5611C72.5272 12.8906 70.56 14.2884 67.5575 14.2884H61.5006V0.621582H61.5524ZM70.2494 4.19359C70.2494 2.84761 69.1623 1.96755 67.2469 1.96755H63.1054V6.67846H67.1433C68.9552 6.67846 70.2494 5.85017 70.2494 4.19359ZM67.3504 8.0762H63.0536V12.8906H67.661C69.7317 12.8906 71.0259 11.9588 71.0259 10.4575V10.4058C70.9742 8.90449 69.7317 8.0762 67.3504 8.0762Z" fill="#020000"/>
<path d="M74.598 9.26717C74.598 5.95401 76.9793 3.98682 79.4124 3.98682C81.2761 3.98682 82.5185 5.02218 83.295 6.10931V4.19389H84.7963V14.2887H83.295V12.2697C82.4667 13.4604 81.2761 14.4958 79.4124 14.4958C76.9793 14.4958 74.598 12.5803 74.598 9.26717ZM83.295 9.2154C83.295 6.83407 81.5349 5.28102 79.6712 5.28102C77.704 5.28102 76.0992 6.73053 76.0992 9.16364V9.2154C76.0992 11.5967 77.7558 13.098 79.6712 13.098C81.5349 13.1498 83.295 11.545 83.295 9.2154Z" fill="#020000"/>
<path d="M87.9024 4.19389H89.4036V5.95401C90.0766 4.86688 91.112 3.98682 92.8721 3.98682C95.3052 3.98682 96.7547 5.6434 96.7547 8.02474V14.2887H95.2534V8.38711C95.2534 6.52346 94.2181 5.33279 92.458 5.33279C90.6979 5.33279 89.4554 6.57523 89.4554 8.49065V14.2369H87.9541V4.19389H87.9024Z" fill="#020000"/>
<path d="M99.7573 0H101.259V9.83596L106.694 4.14146H108.558L104.313 8.48998L108.661 14.2363H106.85L103.226 9.52535L101.155 11.5961V14.2363H99.6538V0H99.7573Z" fill="#020000"/>
<path d="M48.0409 49.9045L52.1306 45.3489C53.8389 47.2126 55.4437 48.2997 57.5144 48.2997C59.9475 48.2997 61.5006 46.7985 61.5006 43.3818V24.3311H68.1787V43.6924C68.1787 47.2126 67.1433 49.801 65.3832 51.6129C63.5713 53.4248 60.8794 54.3566 57.6698 54.3566C53.1141 54.3566 50.1116 52.2859 48.0409 49.9045Z" fill="#020000"/>
<path d="M72.5272 42.6054V42.5019C72.5272 34.9437 77.4452 30.8022 82.8291 30.8022C86.2458 30.8022 88.3683 32.3553 89.8696 34.1672V31.2164H96.2888V53.8391H89.8696V50.5777C88.3165 52.7002 86.1423 54.2532 82.8291 54.2532C77.5487 54.3568 72.5272 50.2153 72.5272 42.6054ZM89.9731 42.6054V42.5019C89.9731 38.7228 87.4882 36.2379 84.4857 36.2379C81.4831 36.2379 78.9465 38.671 78.9465 42.5019V42.6054C78.9465 46.3845 81.4831 48.8693 84.4857 48.8693C87.4882 48.8693 89.9731 46.3845 89.9731 42.6054Z" fill="#020000"/>
<path d="M101.828 23.0889H108.247V39.4994L115.754 31.2682H123.467L114.874 40.1724L123.778 53.8909H116.323L110.525 44.5727L108.247 47.0058V53.8909H101.828V23.0889Z" fill="#020000"/>
<path d="M124.554 42.6054V42.5019C124.554 34.9437 129.472 30.8022 134.856 30.8022C138.273 30.8022 140.395 32.3553 141.897 34.1672V31.2164H148.368V53.8391H141.948V50.5777C140.395 52.7002 138.221 54.2532 134.908 54.2532C129.576 54.3568 124.554 50.2153 124.554 42.6054ZM142 42.6054V42.5019C142 38.7228 139.515 36.2379 136.513 36.2379C133.51 36.2379 130.974 38.671 130.974 42.5019V42.6054C130.974 46.3845 133.51 48.8693 136.513 48.8693C139.515 48.8693 142 46.3845 142 42.6054Z" fill="#020000"/>
<path d="M153.907 31.2682H160.326V35.8238C161.62 32.7177 163.743 30.647 167.574 30.8541V37.5839H167.211C162.966 37.5839 160.326 40.1724 160.326 45.5562V53.9427H153.907V31.2682Z" fill="#020000"/>
<path d="M172.388 47.4717V36.7557H169.696V31.2683H172.388V25.4702H178.807V31.2683H184.139V36.7557H178.807V46.4363C178.807 47.9376 179.429 48.6106 180.878 48.6106C182.069 48.6106 183.104 48.3 184.036 47.7823V52.9591C182.69 53.7874 181.137 54.2533 178.963 54.2533C175.08 54.3051 172.388 52.7521 172.388 47.4717Z" fill="#020000"/>
<path d="M187.038 42.6054V42.5019C187.038 34.9437 191.956 30.8022 197.34 30.8022C200.757 30.8022 202.88 32.3553 204.381 34.1672V31.2164H210.8V53.8391H204.381V50.5777C202.828 52.7002 200.653 54.2532 197.34 54.2532C192.06 54.3568 187.038 50.2153 187.038 42.6054ZM204.484 42.6054V42.5019C204.484 38.7228 201.999 36.2379 198.997 36.2379C195.994 36.2379 193.458 38.671 193.458 42.5019V42.6054C193.458 46.3845 195.994 48.8693 198.997 48.8693C201.948 48.8693 204.484 46.3845 204.484 42.6054Z" fill="#020000"/>
</svg>
