<svg width="680" height="510" viewBox="0 0 680 510" fill="none" xmlns="http://www.w3.org/2000/svg">
<path d="M195.231 67.8C192.084 67.8 189.497 67.5867 187.471 67.16C185.444 66.7867 183.817 66.2267 182.591 65.48C181.417 64.68 180.591 63.6933 180.111 62.52C179.684 61.3467 179.471 59.96 179.471 58.36C179.471 57.88 179.497 57.2133 179.551 56.36C179.604 55.4533 179.684 54.2 179.791 52.6C179.897 51 180.031 48.9467 180.191 46.44C180.404 43.88 180.671 40.68 180.991 36.84C181.364 32.0933 181.657 28.3333 181.871 25.56C182.084 22.7867 182.244 20.6533 182.351 19.16C182.457 17.6133 182.511 16.5467 182.511 15.96C182.564 15.32 182.591 14.7867 182.591 14.36C182.591 13.5067 182.591 12.8133 182.591 12.28C182.644 11.7467 182.697 11.3467 182.751 11.08C182.857 10.76 182.991 10.5467 183.151 10.44C183.364 10.28 183.657 10.2 184.031 10.2C187.177 9.98666 189.844 9.82666 192.031 9.72C194.271 9.61333 196.217 9.56 197.871 9.56C201.924 9.56 205.391 9.90666 208.271 10.6C211.204 11.24 213.577 12.1733 215.391 13.4C217.204 14.6267 218.537 16.1467 219.391 17.96C220.244 19.7733 220.671 21.8267 220.671 24.12C220.671 25.4 220.537 26.7333 220.271 28.12C220.004 29.4533 219.551 30.7333 218.911 31.96C218.271 33.1867 217.391 34.28 216.271 35.24C215.204 36.1467 213.844 36.8133 212.191 37.24C215.284 38.2 217.471 39.8 218.751 42.04C220.031 44.2267 220.671 46.84 220.671 49.88C220.671 52.3333 220.271 54.6533 219.471 56.84C218.671 58.9733 217.284 60.8667 215.311 62.52C213.337 64.12 210.724 65.4 207.471 66.36C204.217 67.32 200.137 67.8 195.231 67.8ZM199.791 43C199.204 43 198.484 43.0533 197.631 43.16C196.777 43.2133 195.897 43.32 194.991 43.48L194.111 56.52C196.031 57.1067 197.764 57.4 199.311 57.4C200.964 57.4 202.297 57.16 203.311 56.68C204.324 56.2 205.097 55.6133 205.631 54.92C206.217 54.1733 206.591 53.3733 206.751 52.52C206.964 51.6133 207.071 50.7867 207.071 50.04C207.071 48.0667 206.511 46.4133 205.391 45.08C204.324 43.6933 202.457 43 199.791 43ZM196.431 21C196.324 22.3867 196.217 24.0133 196.111 25.88C196.057 27.7467 195.951 29.7733 195.791 31.96C197.497 32.3867 199.017 32.6 200.351 32.6C201.951 32.6 203.231 32.4133 204.191 32.04C205.151 31.6667 205.897 31.1867 206.431 30.6C207.017 30.0133 207.391 29.3733 207.551 28.68C207.764 27.9867 207.871 27.32 207.871 26.68C207.871 25.0267 207.311 23.6133 206.191 22.44C205.124 21.2133 203.257 20.6 200.591 20.6C200.004 20.6 199.337 20.6533 198.591 20.76C197.897 20.8133 197.177 20.8933 196.431 21ZM245.588 67.8C243.241 67.8 240.895 67.5067 238.548 66.92C236.255 66.3333 234.175 65.32 232.308 63.88C230.495 62.44 229.001 60.52 227.828 58.12C226.655 55.72 226.068 52.7067 226.068 49.08C226.068 47.7467 226.175 46.1467 226.388 44.28C226.601 42.4133 227.001 40.4933 227.588 38.52C228.228 36.5467 229.081 34.6 230.148 32.68C231.268 30.7067 232.708 28.9467 234.468 27.4C236.228 25.8533 238.361 24.6 240.868 23.64C243.375 22.68 246.361 22.2 249.828 22.2C252.601 22.2 254.948 22.52 256.868 23.16C258.788 23.8 260.335 24.68 261.508 25.8C262.681 26.8667 263.535 28.12 264.068 29.56C264.601 31 264.868 32.5467 264.868 34.2C264.868 36.6533 264.361 38.7333 263.348 40.44C262.388 42.1467 261.108 43.5867 259.508 44.76C257.961 45.88 256.228 46.76 254.308 47.4C252.388 48.04 250.495 48.5467 248.628 48.92C246.761 49.24 245.028 49.4533 243.428 49.56C241.881 49.6133 240.681 49.64 239.828 49.64C239.828 50.6533 239.961 51.6667 240.228 52.68C240.548 53.64 241.001 54.4933 241.588 55.24C242.175 55.9867 242.948 56.6 243.908 57.08C244.868 57.56 246.041 57.8 247.428 57.8C248.815 57.8 249.881 57.5867 250.628 57.16C251.428 56.68 252.068 56.1733 252.548 55.64C253.028 55.0533 253.428 54.5467 253.748 54.12C254.121 53.64 254.601 53.4 255.188 53.4C255.455 53.4 255.908 53.48 256.548 53.64C257.241 53.7467 257.935 54.0133 258.628 54.44C259.321 54.8667 259.935 55.4533 260.468 56.2C261.001 56.9467 261.268 57.9067 261.268 59.08C261.268 60.6267 260.788 61.96 259.828 63.08C258.868 64.2 257.615 65.1067 256.068 65.8C254.575 66.4933 252.895 67 251.028 67.32C249.161 67.64 247.348 67.8 245.588 67.8ZM247.108 32.84C245.935 32.84 244.921 33.1867 244.068 33.88C243.268 34.52 242.575 35.3467 241.988 36.36C241.455 37.3733 241.028 38.4933 240.708 39.72C240.441 40.9467 240.228 42.12 240.068 43.24C243.375 43.1867 246.041 42.6267 248.068 41.56C250.148 40.4933 251.188 38.9733 251.188 37C251.188 35.9333 250.841 34.9733 250.148 34.12C249.508 33.2667 248.495 32.84 247.108 32.84ZM295.526 42.12C295.206 42.12 294.833 42.12 294.406 42.12C294.033 42.0667 293.66 42.0133 293.286 41.96C292.913 41.8533 292.593 41.7467 292.326 41.64C292.06 41.48 291.926 41.2933 291.926 41.08C291.926 40.3867 291.953 39.7467 292.006 39.16C292.06 38.5733 292.086 37.96 292.086 37.32C292.086 36.1467 291.926 35.1867 291.606 34.44C291.286 33.6933 290.646 33.32 289.686 33.32C288.193 33.32 286.94 34.3067 285.926 36.28C284.966 38.2 284.353 41.1067 284.086 45C283.98 46.7067 283.82 48.6533 283.606 50.84C283.446 52.9733 283.286 55.0533 283.126 57.08C282.966 59.0533 282.833 60.8133 282.726 62.36C282.62 63.9067 282.566 64.92 282.566 65.4C282.566 65.9333 282.38 66.3333 282.006 66.6C281.633 66.8667 281.233 67 280.806 67H277.926C276.273 67 274.913 66.84 273.846 66.52C272.833 66.1467 272.006 65.64 271.366 65C270.78 64.36 270.353 63.5867 270.086 62.68C269.873 61.72 269.766 60.6267 269.766 59.4C269.766 58.6 269.793 57.48 269.846 56.04C269.953 54.5467 270.113 52.52 270.326 49.96C270.54 47.3467 270.78 44.0667 271.046 40.12C271.366 36.12 271.74 31.1867 272.166 25.32C272.273 23.7733 272.833 23 273.846 23H276.966C278.46 23 279.713 23.16 280.726 23.48C281.74 23.8 282.566 24.2533 283.206 24.84C283.846 25.3733 284.3 26.0133 284.566 26.76C284.886 27.5067 285.1 28.28 285.206 29.08C285.846 27.8533 286.593 26.8133 287.446 25.96C288.353 25.0533 289.286 24.3333 290.246 23.8C291.206 23.2133 292.193 22.8133 293.206 22.6C294.22 22.3333 295.153 22.2 296.006 22.2C297.02 22.2 298.033 22.3867 299.046 22.76C300.113 23.1333 301.073 23.6933 301.926 24.44C302.78 25.1867 303.446 26.1467 303.926 27.32C304.46 28.4933 304.726 29.88 304.726 31.48C304.726 32.92 304.513 34.28 304.086 35.56C303.66 36.84 303.046 37.9867 302.246 39C301.446 39.96 300.46 40.7333 299.286 41.32C298.166 41.8533 296.913 42.12 295.526 42.12ZM326.608 22.2C331.141 22.2 334.474 23.1067 336.608 24.92C338.741 26.68 339.808 28.9467 339.808 31.72C339.808 34.0667 339.061 35.8533 337.568 37.08C336.128 38.3067 334.021 38.92 331.248 38.92C330.501 38.92 329.994 38.84 329.728 38.68C329.461 38.52 329.328 38.2267 329.328 37.8C329.328 37.32 329.274 36.7867 329.168 36.2C329.114 35.56 328.928 34.9733 328.608 34.44C328.341 33.8533 327.888 33.3733 327.248 33C326.661 32.6267 325.808 32.44 324.688 32.44C323.194 32.44 321.994 32.8133 321.088 33.56C320.181 34.2533 319.728 35.1333 319.728 36.2C319.728 37.32 320.181 38.2267 321.088 38.92C322.048 39.56 323.221 40.1733 324.608 40.76C326.048 41.3467 327.594 41.96 329.248 42.6C330.901 43.1867 332.421 43.9867 333.808 45C335.248 46.0133 336.421 47.2933 337.328 48.84C338.288 50.3333 338.768 52.28 338.768 54.68C338.768 58.52 337.408 61.6667 334.688 64.12C331.968 66.5733 327.888 67.8 322.448 67.8C320.954 67.8 319.221 67.6667 317.248 67.4C315.328 67.1867 313.488 66.84 311.728 66.36C309.968 65.8267 308.474 65.1333 307.248 64.28C306.074 63.4267 305.488 62.36 305.488 61.08C305.488 60.6 305.568 60.0133 305.728 59.32C305.941 58.6267 306.234 57.96 306.608 57.32C307.034 56.68 307.514 56.1467 308.048 55.72C308.634 55.24 309.328 55 310.128 55C310.768 55 311.354 55.16 311.888 55.48C312.421 55.8 313.034 56.1467 313.728 56.52C314.474 56.84 315.381 57.16 316.447 57.48C317.514 57.8 318.928 57.96 320.688 57.96C322.021 57.96 323.194 57.8 324.208 57.48C325.274 57.16 325.807 56.44 325.807 55.32C325.807 54.3067 325.381 53.5067 324.528 52.92C323.674 52.28 322.581 51.6933 321.248 51.16C319.968 50.6267 318.554 50.0667 317.008 49.48C315.514 48.84 314.101 48.0133 312.768 47C311.488 45.9867 310.421 44.7067 309.568 43.16C308.714 41.56 308.288 39.5067 308.288 37C308.288 34.28 308.821 31.9867 309.888 30.12C311.008 28.2 312.421 26.6533 314.128 25.48C315.888 24.3067 317.861 23.48 320.048 23C322.234 22.4667 324.421 22.2 326.608 22.2ZM343.146 57.16C343.146 52.36 345.306 48.6 349.626 45.88C353.946 43.16 360.319 41.6933 368.746 41.48C368.799 40.8933 368.826 40.4133 368.826 40.04C368.879 39.6133 368.906 39.1067 368.906 38.52C368.906 36.8133 368.586 35.4533 367.946 34.44C367.306 33.4267 365.972 32.92 363.946 32.92C362.826 32.92 361.919 33.08 361.226 33.4C360.532 33.72 359.972 34.1733 359.546 34.76C359.119 35.2933 358.772 35.96 358.506 36.76C358.239 37.56 357.999 38.44 357.786 39.4C357.679 39.88 357.439 40.2 357.066 40.36C356.692 40.4667 356.106 40.52 355.306 40.52C349.866 40.52 347.146 38.4667 347.146 34.36C347.146 32.7067 347.519 31.1333 348.266 29.64C349.066 28.1467 350.212 26.8667 351.706 25.8C353.252 24.68 355.172 23.8 357.466 23.16C359.759 22.52 362.426 22.2 365.466 22.2C371.386 22.2 375.679 23.4267 378.346 25.88C381.012 28.3333 382.346 31.8 382.346 36.28C382.346 36.8667 382.266 37.9333 382.106 39.48C381.999 40.9733 381.839 42.5733 381.626 44.28C381.466 45.9333 381.306 47.5067 381.146 49C381.039 50.4933 380.986 51.5333 380.986 52.12C380.986 53.4533 381.226 54.4133 381.706 55C382.186 55.5333 382.719 55.9067 383.306 56.12C383.946 56.3333 384.506 56.4933 384.986 56.6C385.466 56.7067 385.706 56.9733 385.706 57.4C385.706 58.5733 385.546 59.7733 385.226 61C384.906 62.2267 384.372 63.3467 383.626 64.36C382.932 65.3733 381.946 66.2 380.666 66.84C379.439 67.48 377.919 67.8 376.106 67.8C373.546 67.8 371.626 67.1867 370.346 65.96C369.066 64.7333 368.212 63.0267 367.786 60.84C366.506 62.7067 364.826 64.3333 362.746 65.72C360.719 67.1067 358.052 67.8 354.746 67.8C353.146 67.8 351.626 67.6133 350.186 67.24C348.799 66.8667 347.572 66.2533 346.506 65.4C345.492 64.5467 344.666 63.4533 344.026 62.12C343.439 60.7333 343.146 59.08 343.146 57.16ZM368.026 48.04C366.639 48.04 365.279 48.1467 363.946 48.36C362.612 48.5733 361.412 48.92 360.346 49.4C359.332 49.8267 358.506 50.4133 357.866 51.16C357.226 51.9067 356.906 52.8133 356.906 53.88C356.906 55.1067 357.279 55.96 358.026 56.44C358.826 56.92 359.679 57.16 360.586 57.16C361.439 57.16 362.292 56.9733 363.146 56.6C363.999 56.2267 364.746 55.6667 365.386 54.92C366.079 54.12 366.666 53.16 367.146 52.04C367.626 50.92 367.919 49.5867 368.026 48.04ZM404.464 52.6C404.304 55.0533 404.117 57.4 403.904 59.64C403.69 61.8267 403.53 63.7467 403.424 65.4C403.37 66.04 403.237 66.4667 403.024 66.68C402.81 66.8933 402.357 67 401.664 67H398.784C397.13 67 395.77 66.84 394.704 66.52C393.69 66.1467 392.864 65.64 392.224 65C391.637 64.36 391.21 63.5867 390.944 62.68C390.73 61.72 390.624 60.6267 390.624 59.4C390.624 58.6 390.65 57.48 390.704 56.04C390.81 54.5467 390.97 52.52 391.184 49.96C391.397 47.3467 391.637 44.0667 391.904 40.12C392.224 36.12 392.597 31.1867 393.024 25.32C393.077 24.1467 393.21 23.4533 393.424 23.24C393.584 23.08 394.01 23 394.704 23H397.824C399.424 23 400.73 23.1867 401.744 23.56C402.757 23.9333 403.584 24.4133 404.224 25C404.864 25.5867 405.317 26.28 405.584 27.08C405.85 27.88 406.01 28.7067 406.064 29.56C407.61 26.68 409.37 24.7333 411.344 23.72C413.317 22.7067 415.637 22.2 418.304 22.2C419.744 22.2 421.13 22.3333 422.464 22.6C423.797 22.8667 424.997 23.32 426.064 23.96C427.13 24.6 428.037 25.4533 428.784 26.52C429.53 27.5333 430.064 28.84 430.384 30.44C432.037 27.3467 433.85 25.2133 435.824 24.04C437.797 22.8133 440.277 22.2 443.264 22.2C444.917 22.2 446.49 22.3867 447.984 22.76C449.53 23.08 450.864 23.6667 451.984 24.52C453.104 25.3733 453.984 26.5467 454.624 28.04C455.317 29.48 455.664 31.2933 455.664 33.48C455.664 35.1333 455.584 37.16 455.424 39.56C455.264 41.96 455.077 44.5733 454.864 47.4C454.65 50.1733 454.41 53.0533 454.144 56.04C453.877 58.9733 453.664 61.8 453.504 64.52C453.45 65.1067 453.397 65.56 453.344 65.88C453.29 66.2 453.184 66.44 453.024 66.6C452.917 66.76 452.73 66.8667 452.464 66.92C452.197 66.9733 451.824 67 451.344 67H448.784C447.077 67 445.69 66.84 444.624 66.52C443.557 66.2 442.73 65.7467 442.144 65.16C441.557 64.5733 441.13 63.8533 440.864 63C440.65 62.0933 440.544 61.08 440.544 59.96C440.544 59.2667 440.57 58.28 440.624 57C440.73 55.72 440.837 54.3333 440.944 52.84C441.104 51.3467 441.237 49.8 441.344 48.2C441.504 46.6 441.637 45.1333 441.744 43.8C441.904 42.4133 442.01 41.2133 442.064 40.2C442.17 39.1867 442.224 38.52 442.224 38.2C442.224 36.8133 441.93 35.5867 441.344 34.52C440.81 33.4533 439.744 32.92 438.144 32.92C436.757 32.92 435.557 33.3733 434.544 34.28C433.53 35.1867 432.677 36.44 431.984 38.04C431.29 39.64 430.73 41.5333 430.304 43.72C429.877 45.9067 429.584 48.28 429.424 50.84C429.317 52.4933 429.184 54.3867 429.024 56.52C428.864 58.6533 428.677 61.32 428.464 64.52C428.41 65.1067 428.357 65.56 428.304 65.88C428.25 66.2 428.144 66.44 427.984 66.6C427.877 66.76 427.69 66.8667 427.424 66.92C427.157 66.9733 426.784 67 426.304 67H423.744C422.037 67 420.65 66.84 419.584 66.52C418.517 66.2 417.69 65.7467 417.104 65.16C416.517 64.5733 416.09 63.8533 415.824 63C415.61 62.0933 415.504 61.08 415.504 59.96C415.504 58.8933 415.584 57.3467 415.744 55.32C415.957 53.24 416.144 51.1067 416.304 48.92C416.517 46.68 416.704 44.5733 416.864 42.6C417.077 40.5733 417.184 39.1067 417.184 38.2C417.184 36.8133 416.89 35.5867 416.304 34.52C415.77 33.4533 414.704 32.92 413.104 32.92C411.664 32.92 410.437 33.4533 409.424 34.52C408.41 35.5867 407.557 37.0267 406.864 38.84C406.224 40.6 405.69 42.68 405.264 45.08C404.89 47.48 404.624 49.9867 404.464 52.6ZM460.411 57.16C460.411 52.36 462.571 48.6 466.891 45.88C471.211 43.16 477.585 41.6933 486.011 41.48C486.065 40.8933 486.091 40.4133 486.091 40.04C486.145 39.6133 486.171 39.1067 486.171 38.52C486.171 36.8133 485.851 35.4533 485.211 34.44C484.571 33.4267 483.238 32.92 481.211 32.92C480.091 32.92 479.185 33.08 478.491 33.4C477.798 33.72 477.238 34.1733 476.811 34.76C476.385 35.2933 476.038 35.96 475.771 36.76C475.505 37.56 475.265 38.44 475.051 39.4C474.945 39.88 474.705 40.2 474.331 40.36C473.958 40.4667 473.371 40.52 472.571 40.52C467.131 40.52 464.411 38.4667 464.411 34.36C464.411 32.7067 464.785 31.1333 465.531 29.64C466.331 28.1467 467.478 26.8667 468.971 25.8C470.518 24.68 472.438 23.8 474.731 23.16C477.025 22.52 479.691 22.2 482.731 22.2C488.651 22.2 492.945 23.4267 495.611 25.88C498.278 28.3333 499.611 31.8 499.611 36.28C499.611 36.8667 499.531 37.9333 499.371 39.48C499.265 40.9733 499.105 42.5733 498.891 44.28C498.731 45.9333 498.571 47.5067 498.411 49C498.305 50.4933 498.251 51.5333 498.251 52.12C498.251 53.4533 498.491 54.4133 498.971 55C499.451 55.5333 499.985 55.9067 500.571 56.12C501.211 56.3333 501.771 56.4933 502.251 56.6C502.731 56.7067 502.971 56.9733 502.971 57.4C502.971 58.5733 502.811 59.7733 502.491 61C502.171 62.2267 501.638 63.3467 500.891 64.36C500.198 65.3733 499.211 66.2 497.931 66.84C496.705 67.48 495.185 67.8 493.371 67.8C490.811 67.8 488.891 67.1867 487.611 65.96C486.331 64.7333 485.478 63.0267 485.051 60.84C483.771 62.7067 482.091 64.3333 480.011 65.72C477.985 67.1067 475.318 67.8 472.011 67.8C470.411 67.8 468.891 67.6133 467.451 67.24C466.065 66.8667 464.838 66.2533 463.771 65.4C462.758 64.5467 461.931 63.4533 461.291 62.12C460.705 60.7333 460.411 59.08 460.411 57.16ZM485.291 48.04C483.905 48.04 482.545 48.1467 481.211 48.36C479.878 48.5733 478.678 48.92 477.611 49.4C476.598 49.8267 475.771 50.4133 475.131 51.16C474.491 51.9067 474.171 52.8133 474.171 53.88C474.171 55.1067 474.545 55.96 475.291 56.44C476.091 56.92 476.945 57.16 477.851 57.16C478.705 57.16 479.558 56.9733 480.411 56.6C481.265 56.2267 482.011 55.6667 482.651 54.92C483.345 54.12 483.931 53.16 484.411 52.04C484.891 50.92 485.185 49.5867 485.291 48.04ZM181.97 137C178.93 137 176.77 136.413 175.49 135.24C174.264 134.013 173.65 132.227 173.65 129.88C173.65 129.187 173.677 128.093 173.73 126.6C173.837 125.053 173.97 123.24 174.13 121.16C174.29 119.08 174.45 116.813 174.61 114.36C174.824 111.907 175.037 109.4 175.25 106.84C175.517 103.693 175.73 101 175.89 98.76C176.104 96.4667 176.264 94.52 176.37 92.92C176.477 91.2667 176.557 89.9067 176.61 88.84C176.717 87.72 176.77 86.76 176.77 85.96C176.824 85.1067 176.85 84.3333 176.85 83.64C176.904 82.9467 176.93 82.2 176.93 81.4C176.93 80.9733 177.064 80.68 177.33 80.52C177.597 80.3067 177.864 80.2 178.13 80.2C179.517 80.2 181.037 80.1733 182.69 80.12C184.344 80.0133 185.997 79.9067 187.65 79.8C189.304 79.6933 190.904 79.6133 192.45 79.56C193.997 79.4533 195.357 79.4 196.53 79.4C199.944 79.4 202.877 79.8267 205.33 80.68C207.784 81.48 209.757 82.68 211.25 84.28C212.797 85.8267 213.917 87.72 214.61 89.96C215.357 92.2 215.73 94.76 215.73 97.64C215.73 100.787 215.304 103.827 214.45 106.76C213.65 109.64 212.37 112.2 210.61 114.44C208.85 116.68 206.584 118.467 203.81 119.8C201.037 121.133 197.73 121.8 193.89 121.8C191.597 121.8 189.65 121.56 188.05 121.08L186.93 135.8C186.877 136.227 186.77 136.547 186.61 136.76C186.45 136.92 186.13 137 185.65 137H181.97ZM194.93 91.4C194.237 91.4 193.464 91.4533 192.61 91.56C191.757 91.6133 190.85 91.6933 189.89 91.8C189.784 94.04 189.65 96.76 189.49 99.96C189.33 103.16 189.117 106.52 188.85 110.04C189.65 110.253 190.424 110.413 191.17 110.52C191.97 110.573 192.69 110.6 193.33 110.6C195.197 110.6 196.69 110.173 197.81 109.32C198.984 108.413 199.89 107.32 200.53 106.04C201.17 104.76 201.597 103.427 201.81 102.04C202.024 100.653 202.13 99.4533 202.13 98.44C202.13 96.1467 201.597 94.4133 200.53 93.24C199.517 92.0133 197.65 91.4 194.93 91.4ZM238.362 137.8C236.015 137.8 233.668 137.507 231.322 136.92C229.028 136.333 226.948 135.32 225.082 133.88C223.268 132.44 221.775 130.52 220.602 128.12C219.428 125.72 218.842 122.707 218.842 119.08C218.842 117.747 218.948 116.147 219.162 114.28C219.375 112.413 219.775 110.493 220.362 108.52C221.002 106.547 221.855 104.6 222.922 102.68C224.042 100.707 225.482 98.9467 227.242 97.4C229.002 95.8533 231.135 94.6 233.642 93.64C236.148 92.68 239.135 92.2 242.602 92.2C245.375 92.2 247.722 92.52 249.642 93.16C251.562 93.8 253.108 94.68 254.282 95.8C255.455 96.8667 256.308 98.12 256.842 99.56C257.375 101 257.642 102.547 257.642 104.2C257.642 106.653 257.135 108.733 256.122 110.44C255.162 112.147 253.882 113.587 252.282 114.76C250.735 115.88 249.002 116.76 247.082 117.4C245.162 118.04 243.268 118.547 241.402 118.92C239.535 119.24 237.802 119.453 236.202 119.56C234.655 119.613 233.455 119.64 232.602 119.64C232.602 120.653 232.735 121.667 233.002 122.68C233.322 123.64 233.775 124.493 234.362 125.24C234.948 125.987 235.722 126.6 236.682 127.08C237.642 127.56 238.815 127.8 240.202 127.8C241.588 127.8 242.655 127.587 243.402 127.16C244.202 126.68 244.842 126.173 245.322 125.64C245.802 125.053 246.202 124.547 246.522 124.12C246.895 123.64 247.375 123.4 247.962 123.4C248.228 123.4 248.682 123.48 249.322 123.64C250.015 123.747 250.708 124.013 251.402 124.44C252.095 124.867 252.708 125.453 253.242 126.2C253.775 126.947 254.042 127.907 254.042 129.08C254.042 130.627 253.562 131.96 252.602 133.08C251.642 134.2 250.388 135.107 248.842 135.8C247.348 136.493 245.668 137 243.802 137.32C241.935 137.64 240.122 137.8 238.362 137.8ZM239.882 102.84C238.708 102.84 237.695 103.187 236.842 103.88C236.042 104.52 235.348 105.347 234.762 106.36C234.228 107.373 233.802 108.493 233.482 109.72C233.215 110.947 233.002 112.12 232.842 113.24C236.148 113.187 238.815 112.627 240.842 111.56C242.922 110.493 243.962 108.973 243.962 107C243.962 105.933 243.615 104.973 242.922 104.12C242.282 103.267 241.268 102.84 239.882 102.84ZM276.3 122.6C276.14 125.053 275.953 127.4 275.74 129.64C275.526 131.827 275.366 133.747 275.26 135.4C275.206 136.04 275.073 136.467 274.86 136.68C274.646 136.893 274.193 137 273.5 137H270.62C268.966 137 267.606 136.84 266.54 136.52C265.526 136.147 264.7 135.64 264.06 135C263.473 134.36 263.046 133.587 262.78 132.68C262.566 131.72 262.46 130.627 262.46 129.4C262.46 128.6 262.486 127.48 262.54 126.04C262.646 124.547 262.806 122.52 263.02 119.96C263.233 117.347 263.473 114.067 263.74 110.12C264.06 106.12 264.433 101.187 264.86 95.32C264.913 94.1467 265.046 93.4533 265.26 93.24C265.42 93.08 265.846 93 266.54 93H269.66C271.26 93 272.566 93.1867 273.58 93.56C274.593 93.9333 275.42 94.4133 276.06 95C276.7 95.5867 277.153 96.28 277.42 97.08C277.686 97.88 277.846 98.7067 277.9 99.56C279.446 96.68 281.206 94.7333 283.18 93.72C285.153 92.7067 287.473 92.2 290.14 92.2C291.58 92.2 292.966 92.3333 294.3 92.6C295.633 92.8667 296.833 93.32 297.9 93.96C298.966 94.6 299.873 95.4533 300.62 96.52C301.366 97.5333 301.9 98.84 302.22 100.44C303.873 97.3467 305.686 95.2133 307.66 94.04C309.633 92.8133 312.113 92.2 315.1 92.2C316.753 92.2 318.326 92.3867 319.82 92.76C321.366 93.08 322.7 93.6667 323.82 94.52C324.94 95.3733 325.82 96.5467 326.46 98.04C327.153 99.48 327.5 101.293 327.5 103.48C327.5 105.133 327.42 107.16 327.26 109.56C327.1 111.96 326.913 114.573 326.7 117.4C326.486 120.173 326.246 123.053 325.98 126.04C325.713 128.973 325.5 131.8 325.34 134.52C325.286 135.107 325.233 135.56 325.18 135.88C325.126 136.2 325.02 136.44 324.86 136.6C324.753 136.76 324.566 136.867 324.3 136.92C324.033 136.973 323.66 137 323.18 137H320.62C318.913 137 317.526 136.84 316.46 136.52C315.393 136.2 314.566 135.747 313.98 135.16C313.393 134.573 312.966 133.853 312.7 133C312.486 132.093 312.38 131.08 312.38 129.96C312.38 129.267 312.406 128.28 312.46 127C312.566 125.72 312.673 124.333 312.78 122.84C312.94 121.347 313.073 119.8 313.18 118.2C313.34 116.6 313.473 115.133 313.58 113.8C313.74 112.413 313.846 111.213 313.9 110.2C314.006 109.187 314.06 108.52 314.06 108.2C314.06 106.813 313.766 105.587 313.18 104.52C312.646 103.453 311.58 102.92 309.98 102.92C308.593 102.92 307.393 103.373 306.38 104.28C305.366 105.187 304.513 106.44 303.82 108.04C303.126 109.64 302.566 111.533 302.14 113.72C301.713 115.907 301.42 118.28 301.26 120.84C301.153 122.493 301.02 124.387 300.86 126.52C300.7 128.653 300.513 131.32 300.3 134.52C300.246 135.107 300.193 135.56 300.14 135.88C300.086 136.2 299.98 136.44 299.82 136.6C299.713 136.76 299.526 136.867 299.26 136.92C298.993 136.973 298.62 137 298.14 137H295.58C293.873 137 292.486 136.84 291.42 136.52C290.353 136.2 289.526 135.747 288.94 135.16C288.353 134.573 287.926 133.853 287.66 133C287.446 132.093 287.34 131.08 287.34 129.96C287.34 128.893 287.42 127.347 287.58 125.32C287.793 123.24 287.98 121.107 288.14 118.92C288.353 116.68 288.54 114.573 288.7 112.6C288.913 110.573 289.02 109.107 289.02 108.2C289.02 106.813 288.726 105.587 288.14 104.52C287.606 103.453 286.54 102.92 284.94 102.92C283.5 102.92 282.273 103.453 281.26 104.52C280.246 105.587 279.393 107.027 278.7 108.84C278.06 110.6 277.526 112.68 277.1 115.08C276.726 117.48 276.46 119.987 276.3 122.6ZM362.327 92.2C367.341 92.2 371.101 93.7467 373.607 96.84C376.167 99.9333 377.447 104.813 377.447 111.48C377.447 115.64 376.967 119.347 376.007 122.6C375.047 125.853 373.714 128.627 372.007 130.92C370.301 133.16 368.301 134.867 366.007 136.04C363.714 137.213 361.234 137.8 358.567 137.8C355.741 137.8 353.527 137.187 351.927 135.96C350.327 134.733 349.074 133 348.167 130.76C348.007 132.68 347.874 134.147 347.767 135.16C347.661 136.173 347.581 136.973 347.527 137.56C347.474 138.2 347.421 138.76 347.367 139.24C347.367 139.72 347.314 140.36 347.207 141.16C347.154 141.96 347.074 143.053 346.967 144.44C346.861 145.827 346.701 147.747 346.487 150.2C346.434 150.84 346.301 151.267 346.087 151.48C345.874 151.693 345.421 151.8 344.727 151.8H341.847C340.194 151.8 338.834 151.613 337.767 151.24C336.754 150.92 335.927 150.44 335.287 149.8C334.701 149.16 334.274 148.36 334.007 147.4C333.794 146.493 333.687 145.427 333.687 144.2C333.687 143.667 333.767 142.227 333.927 139.88C334.087 137.533 334.274 134.733 334.487 131.48C334.754 128.173 335.021 124.627 335.287 120.84C335.607 117.053 335.901 113.453 336.167 110.04C336.434 106.573 336.647 103.507 336.807 100.84C337.021 98.1733 337.181 96.3333 337.287 95.32C337.341 94.1467 337.474 93.4533 337.687 93.24C337.847 93.08 338.274 93 338.967 93H342.087C344.967 93 347.047 93.6133 348.327 94.84C349.661 96.0133 350.327 97.4267 350.327 99.08C351.554 96.6267 353.127 94.8667 355.047 93.8C357.021 92.7333 359.447 92.2 362.327 92.2ZM356.487 102.84C353.767 102.84 351.767 104.013 350.487 106.36C349.207 108.707 348.567 111.907 348.567 115.96C348.567 117.347 348.647 118.707 348.807 120.04C349.021 121.373 349.367 122.573 349.847 123.64C350.327 124.707 350.967 125.56 351.767 126.2C352.621 126.84 353.687 127.16 354.967 127.16C357.261 127.16 359.181 126.04 360.727 123.8C362.274 121.56 363.047 118.04 363.047 113.24C363.047 111.907 362.941 110.627 362.727 109.4C362.567 108.12 362.247 107 361.767 106.04C361.287 105.08 360.621 104.307 359.767 103.72C358.914 103.133 357.821 102.84 356.487 102.84ZM409.472 112.12C409.152 112.12 408.778 112.12 408.352 112.12C407.978 112.067 407.605 112.013 407.232 111.96C406.858 111.853 406.538 111.747 406.272 111.64C406.005 111.48 405.872 111.293 405.872 111.08C405.872 110.387 405.898 109.747 405.952 109.16C406.005 108.573 406.032 107.96 406.032 107.32C406.032 106.147 405.872 105.187 405.552 104.44C405.232 103.693 404.592 103.32 403.632 103.32C402.138 103.32 400.885 104.307 399.872 106.28C398.912 108.2 398.298 111.107 398.032 115C397.925 116.707 397.765 118.653 397.552 120.84C397.392 122.973 397.232 125.053 397.072 127.08C396.912 129.053 396.778 130.813 396.672 132.36C396.565 133.907 396.512 134.92 396.512 135.4C396.512 135.933 396.325 136.333 395.952 136.6C395.578 136.867 395.178 137 394.752 137H391.872C390.218 137 388.858 136.84 387.792 136.52C386.778 136.147 385.952 135.64 385.312 135C384.725 134.36 384.298 133.587 384.032 132.68C383.818 131.72 383.712 130.627 383.712 129.4C383.712 128.6 383.738 127.48 383.792 126.04C383.898 124.547 384.058 122.52 384.272 119.96C384.485 117.347 384.725 114.067 384.992 110.12C385.312 106.12 385.685 101.187 386.112 95.32C386.218 93.7733 386.778 93 387.792 93H390.912C392.405 93 393.658 93.16 394.672 93.48C395.685 93.8 396.512 94.2533 397.152 94.84C397.792 95.3733 398.245 96.0133 398.512 96.76C398.832 97.5067 399.045 98.28 399.152 99.08C399.792 97.8533 400.538 96.8133 401.392 95.96C402.298 95.0533 403.232 94.3333 404.192 93.8C405.152 93.2133 406.138 92.8133 407.152 92.6C408.165 92.3333 409.098 92.2 409.952 92.2C410.965 92.2 411.978 92.3867 412.992 92.76C414.058 93.1333 415.018 93.6933 415.872 94.44C416.725 95.1867 417.392 96.1467 417.872 97.32C418.405 98.4933 418.672 99.88 418.672 101.48C418.672 102.92 418.458 104.28 418.032 105.56C417.605 106.84 416.992 107.987 416.192 109C415.392 109.96 414.405 110.733 413.232 111.32C412.112 111.853 410.858 112.12 409.472 112.12ZM439.833 137.8C436.153 137.8 433.086 137.293 430.633 136.28C428.233 135.213 426.313 133.773 424.873 131.96C423.433 130.147 422.419 128.04 421.833 125.64C421.246 123.187 420.953 120.573 420.953 117.8C420.953 114.6 421.326 111.48 422.073 108.44C422.873 105.347 424.206 102.6 426.073 100.2C427.939 97.8 430.393 95.88 433.433 94.44C436.526 92.9467 440.366 92.2 444.953 92.2C451.673 92.2 456.473 93.8533 459.353 97.16C462.286 100.413 463.753 105 463.753 110.92C463.753 112.573 463.619 114.413 463.353 116.44C463.139 118.413 462.686 120.387 461.993 122.36C461.353 124.333 460.446 126.253 459.273 128.12C458.153 129.987 456.713 131.64 454.953 133.08C453.193 134.52 451.059 135.667 448.553 136.52C446.099 137.373 443.193 137.8 439.833 137.8ZM443.593 102.84C441.566 102.84 439.939 103.373 438.713 104.44C437.539 105.453 436.633 106.707 435.993 108.2C435.406 109.64 435.006 111.187 434.793 112.84C434.633 114.44 434.553 115.8 434.553 116.92C434.553 120.44 435.113 123.027 436.233 124.68C437.353 126.333 438.953 127.16 441.033 127.16C442.899 127.16 444.419 126.573 445.593 125.4C446.819 124.227 447.753 122.813 448.393 121.16C449.086 119.507 449.539 117.773 449.753 115.96C450.019 114.147 450.153 112.627 450.153 111.4C450.153 108.733 449.646 106.653 448.633 105.16C447.673 103.613 445.993 102.84 443.593 102.84ZM487.264 126.84C487.904 124.6 488.491 122.387 489.024 120.2C489.611 118.013 490.171 115.693 490.704 113.24C491.291 110.733 491.904 108.013 492.544 105.08C493.237 102.093 494.037 98.7067 494.944 94.92C495.104 94.1733 495.344 93.6933 495.664 93.48C495.984 93.2133 496.677 93.08 497.744 93.08C498.544 93.08 499.611 93.1067 500.944 93.16C502.277 93.2133 503.584 93.4 504.864 93.72C506.144 94.04 507.237 94.52 508.144 95.16C509.104 95.8 509.584 96.68 509.584 97.8C509.584 98.7067 509.264 100.173 508.624 102.2C507.984 104.227 507.157 106.547 506.144 109.16C505.131 111.72 503.984 114.413 502.704 117.24C501.477 120.067 500.277 122.733 499.104 125.24C497.931 127.747 496.837 129.96 495.824 131.88C494.811 133.747 494.064 135.053 493.584 135.8C493.157 136.387 492.784 136.733 492.464 136.84C492.144 136.947 491.611 137 490.864 137H483.744C482.624 137 481.691 136.813 480.944 136.44C480.251 136.013 479.664 135.48 479.184 134.84C478.704 134.2 478.304 133.48 477.984 132.68C477.664 131.827 477.371 130.947 477.104 130.04C475.557 124.707 474.197 120.147 473.024 116.36C471.904 112.52 470.944 109.32 470.144 106.76C469.344 104.2 468.704 102.173 468.224 100.68C467.744 99.1333 467.371 97.96 467.104 97.16C466.837 96.3067 466.651 95.7467 466.544 95.48C466.437 95.16 466.384 94.9467 466.384 94.84C466.437 94.4667 466.704 94.0667 467.184 93.64C467.664 93.2133 468.277 93 469.024 93C471.477 93 473.557 93.1067 475.264 93.32C477.024 93.48 478.464 93.8 479.584 94.28C480.757 94.76 481.637 95.4267 482.224 96.28C482.864 97.1333 483.317 98.2533 483.584 99.64C483.637 100.013 483.744 100.76 483.904 101.88C484.064 103 484.224 104.36 484.384 105.96C484.597 107.507 484.837 109.24 485.104 111.16C485.371 113.027 485.611 114.92 485.824 116.84C486.091 118.707 486.331 120.52 486.544 122.28C486.811 124.04 487.051 125.56 487.264 126.84ZM122.126 151.4C122.179 150.973 122.339 150.68 122.606 150.52C122.926 150.307 123.219 150.2 123.486 150.2C127.112 150.2 130.499 150.093 133.646 149.88C136.846 149.613 139.352 149.48 141.166 149.48C145.699 149.48 149.486 149.933 152.526 150.84C155.619 151.747 158.099 153.16 159.966 155.08C161.886 157 163.246 159.48 164.046 162.52C164.846 165.56 165.246 169.213 165.246 173.48C165.246 177.8 164.792 182.04 163.886 186.2C163.032 190.307 161.512 193.96 159.326 197.16C157.139 200.36 154.179 202.947 150.446 204.92C146.766 206.84 142.099 207.8 136.446 207.8C133.832 207.8 131.432 207.747 129.246 207.64C127.112 207.533 125.272 207.213 123.726 206.68C122.179 206.147 120.979 205.347 120.126 204.28C119.272 203.213 118.846 201.747 118.846 199.88C118.846 199.187 118.872 198.147 118.926 196.76C119.032 195.373 119.139 193.72 119.246 191.8C119.406 189.88 119.566 187.773 119.726 185.48C119.939 183.133 120.152 180.68 120.366 178.12C120.792 172.84 121.112 168.627 121.326 165.48C121.592 162.333 121.752 159.88 121.806 158.12C121.912 156.307 121.966 154.947 121.966 154.04C122.019 153.133 122.072 152.253 122.126 151.4ZM137.006 195.16C139.992 195.16 142.366 194.52 144.126 193.24C145.939 191.96 147.326 190.333 148.286 188.36C149.246 186.387 149.886 184.227 150.206 181.88C150.526 179.533 150.686 177.32 150.686 175.24C150.686 173 150.526 171.053 150.206 169.4C149.939 167.693 149.432 166.28 148.686 165.16C147.992 164.04 147.006 163.213 145.726 162.68C144.446 162.093 142.846 161.8 140.926 161.8C140.339 161.8 139.592 161.827 138.686 161.88C137.779 161.933 136.686 162.013 135.406 162.12C135.299 164.093 135.166 166.44 135.006 169.16C134.846 171.827 134.659 174.653 134.446 177.64C134.286 180.573 134.099 183.56 133.886 186.6C133.672 189.587 133.459 192.36 133.246 194.92C134.046 195.027 134.766 195.107 135.406 195.16C136.046 195.16 136.579 195.16 137.006 195.16ZM215.887 201.8C215.887 202.227 215.62 202.787 215.087 203.48C214.607 204.12 213.914 204.76 213.007 205.4C212.154 206.04 211.14 206.6 209.967 207.08C208.847 207.56 207.647 207.8 206.367 207.8C204.394 207.8 202.66 207.187 201.167 205.96C199.674 204.68 198.314 202.947 197.087 200.76C195.914 198.573 194.82 195.987 193.807 193C192.794 189.96 191.754 186.68 190.687 183.16L187.647 185.16L186.127 205.8C186.074 206.227 185.967 206.547 185.807 206.76C185.647 206.92 185.327 207 184.847 207H180.447C177.407 207 175.247 206.413 173.967 205.24C172.74 204.013 172.127 202.227 172.127 199.88C172.127 199.133 172.154 198.013 172.207 196.52C172.314 194.973 172.447 193.187 172.607 191.16C172.767 189.08 172.927 186.813 173.087 184.36C173.3 181.907 173.514 179.4 173.727 176.84C174.1 171.72 174.394 167.667 174.607 164.68C174.874 161.693 175.06 159.347 175.167 157.64C175.274 155.88 175.354 154.6 175.407 153.8C175.46 152.947 175.487 152.147 175.487 151.4C175.487 150.6 175.914 150.2 176.767 150.2H181.167C182.874 150.2 184.234 150.387 185.247 150.76C186.314 151.08 187.14 151.56 187.727 152.2C188.314 152.84 188.714 153.64 188.927 154.6C189.14 155.507 189.247 156.573 189.247 157.8C189.247 159.027 189.167 161.027 189.007 163.8C188.9 166.52 188.714 169.587 188.447 173C190.26 170.76 192.42 167.987 194.927 164.68C197.487 161.373 200.58 157.293 204.207 152.44C204.367 152.227 204.58 151.96 204.847 151.64C205.167 151.267 205.487 150.92 205.807 150.6C206.18 150.28 206.554 150.013 206.927 149.8C207.354 149.533 207.754 149.4 208.127 149.4C208.82 149.4 209.62 149.773 210.527 150.52C211.434 151.213 212.287 152.093 213.087 153.16C213.887 154.173 214.554 155.24 215.087 156.36C215.674 157.427 215.967 158.333 215.967 159.08C215.967 160.627 214.58 162.947 211.807 166.04C209.034 169.08 205.06 172.6 199.887 176.6C200.794 178.147 201.834 179.827 203.007 181.64C204.18 183.4 205.354 185.213 206.527 187.08C207.7 188.893 208.847 190.68 209.967 192.44C211.087 194.147 212.074 195.693 212.927 197.08C213.834 198.413 214.554 199.507 215.087 200.36C215.62 201.213 215.887 201.693 215.887 201.8ZM230.291 207C227.304 207 225.171 206.413 223.891 205.24C222.611 204.067 221.971 202.387 221.971 200.2C221.971 199.133 222.051 197.32 222.211 194.76C222.371 192.147 222.584 189.187 222.851 185.88C223.117 182.573 223.384 179.08 223.651 175.4C223.917 171.72 224.184 168.253 224.451 165C224.717 161.747 224.931 158.893 225.091 156.44C225.251 153.987 225.331 152.307 225.331 151.4C225.331 150.6 225.757 150.2 226.611 150.2H231.011C234.264 150.2 236.451 150.893 237.571 152.28C238.691 153.667 239.251 155.72 239.251 158.44C239.251 158.707 239.197 159.56 239.091 161C239.037 162.44 238.931 164.253 238.771 166.44C238.611 168.627 238.424 171.08 238.211 173.8C238.051 176.467 237.864 179.213 237.651 182.04C237.491 184.867 237.304 187.64 237.091 190.36C236.931 193.027 236.771 195.453 236.611 197.64C236.451 199.827 236.317 201.667 236.211 203.16C236.104 204.6 236.024 205.48 235.971 205.8C235.917 206.227 235.811 206.547 235.651 206.76C235.491 206.92 235.171 207 234.691 207H230.291ZM271.325 195.32C272.498 195.32 273.432 194.893 274.125 194.04C274.872 193.187 275.485 192.04 275.965 190.6C276.445 189.16 276.818 187.507 277.085 185.64C277.405 183.72 277.698 181.693 277.965 179.56C278.072 178.6 278.178 177.48 278.285 176.2C278.392 174.867 278.498 173.187 278.605 171.16C278.765 169.08 278.925 166.52 279.085 163.48C279.298 160.387 279.538 156.6 279.805 152.12C279.858 151.373 279.938 150.867 280.045 150.6C280.152 150.333 280.498 150.2 281.085 150.2H285.485C287.298 150.2 288.712 150.36 289.725 150.68C290.792 151 291.592 151.4 292.125 151.88C292.658 152.36 292.978 152.893 293.085 153.48C293.192 154.013 293.245 154.547 293.245 155.08C293.245 155.613 293.218 156.84 293.165 158.76C293.112 160.68 293.032 162.92 292.925 165.48C292.818 167.987 292.658 170.627 292.445 173.4C292.285 176.173 292.098 178.68 291.885 180.92C291.565 183.96 291.058 187.08 290.365 190.28C289.725 193.427 288.658 196.307 287.165 198.92C285.672 201.533 283.672 203.667 281.165 205.32C278.712 206.973 275.512 207.8 271.565 207.8C269.378 207.8 267.405 207.533 265.645 207C263.938 206.467 262.472 205.747 261.245 204.84C260.072 203.88 259.165 202.787 258.525 201.56C257.885 200.28 257.565 198.947 257.565 197.56C257.565 196.28 257.805 195.133 258.285 194.12C258.818 193.053 259.512 192.173 260.365 191.48C261.218 190.787 262.178 190.253 263.245 189.88C264.365 189.507 265.512 189.32 266.685 189.32C267.005 189.32 267.218 189.64 267.325 190.28C267.485 190.867 267.672 191.56 267.885 192.36C268.152 193.107 268.525 193.8 269.005 194.44C269.485 195.027 270.258 195.32 271.325 195.32ZM296.818 197.16C296.818 192.36 298.978 188.6 303.298 185.88C307.618 183.16 313.991 181.693 322.418 181.48C322.471 180.893 322.498 180.413 322.498 180.04C322.551 179.613 322.578 179.107 322.578 178.52C322.578 176.813 322.258 175.453 321.618 174.44C320.978 173.427 319.644 172.92 317.618 172.92C316.498 172.92 315.591 173.08 314.898 173.4C314.204 173.72 313.644 174.173 313.218 174.76C312.791 175.293 312.444 175.96 312.178 176.76C311.911 177.56 311.671 178.44 311.458 179.4C311.351 179.88 311.111 180.2 310.738 180.36C310.364 180.467 309.778 180.52 308.978 180.52C303.538 180.52 300.818 178.467 300.818 174.36C300.818 172.707 301.191 171.133 301.938 169.64C302.738 168.147 303.884 166.867 305.378 165.8C306.924 164.68 308.844 163.8 311.138 163.16C313.431 162.52 316.098 162.2 319.138 162.2C325.058 162.2 329.351 163.427 332.018 165.88C334.684 168.333 336.018 171.8 336.018 176.28C336.018 176.867 335.938 177.933 335.778 179.48C335.671 180.973 335.511 182.573 335.298 184.28C335.138 185.933 334.978 187.507 334.818 189C334.711 190.493 334.658 191.533 334.658 192.12C334.658 193.453 334.898 194.413 335.378 195C335.858 195.533 336.391 195.907 336.978 196.12C337.618 196.333 338.178 196.493 338.658 196.6C339.138 196.707 339.378 196.973 339.378 197.4C339.378 198.573 339.218 199.773 338.898 201C338.578 202.227 338.044 203.347 337.298 204.36C336.604 205.373 335.618 206.2 334.338 206.84C333.111 207.48 331.591 207.8 329.778 207.8C327.218 207.8 325.298 207.187 324.018 205.96C322.738 204.733 321.884 203.027 321.458 200.84C320.178 202.707 318.498 204.333 316.418 205.72C314.391 207.107 311.724 207.8 308.418 207.8C306.818 207.8 305.298 207.613 303.858 207.24C302.471 206.867 301.244 206.253 300.178 205.4C299.164 204.547 298.338 203.453 297.698 202.12C297.111 200.733 296.818 199.08 296.818 197.16ZM321.698 188.04C320.311 188.04 318.951 188.147 317.618 188.36C316.284 188.573 315.084 188.92 314.018 189.4C313.004 189.827 312.178 190.413 311.538 191.16C310.898 191.907 310.578 192.813 310.578 193.88C310.578 195.107 310.951 195.96 311.698 196.44C312.498 196.92 313.351 197.16 314.258 197.16C315.111 197.16 315.964 196.973 316.818 196.6C317.671 196.227 318.418 195.667 319.058 194.92C319.751 194.12 320.338 193.16 320.818 192.04C321.298 190.92 321.591 189.587 321.698 188.04ZM382.296 200.52C382.296 200.787 382.162 201.32 381.896 202.12C381.629 202.92 381.202 203.747 380.616 204.6C380.029 205.453 379.282 206.2 378.376 206.84C377.522 207.48 376.482 207.8 375.256 207.8C373.816 207.8 372.376 207.32 370.936 206.36C369.549 205.4 368.162 204.093 366.776 202.44C365.389 200.787 363.976 198.84 362.536 196.6C361.149 194.307 359.736 191.827 358.296 189.16C358.082 191.987 357.869 194.76 357.656 197.48C357.442 200.2 357.229 202.84 357.016 205.4C356.962 206.04 356.829 206.467 356.616 206.68C356.402 206.893 355.949 207 355.256 207H352.376C350.722 207 349.362 206.84 348.296 206.52C347.229 206.147 346.402 205.64 345.816 205C345.229 204.36 344.802 203.56 344.536 202.6C344.322 201.587 344.216 200.44 344.216 199.16C344.216 198.52 344.242 197.853 344.296 197.16C344.349 196.467 344.429 195.48 344.536 194.2C344.642 192.92 344.776 191.24 344.936 189.16C345.149 187.08 345.389 184.333 345.656 180.92C345.922 177.507 346.216 173.32 346.536 168.36C346.909 163.347 347.309 157.267 347.736 150.12C347.789 148.947 347.922 148.253 348.136 148.04C348.296 147.88 348.722 147.8 349.416 147.8H352.536C354.189 147.8 355.549 147.987 356.616 148.36C357.682 148.733 358.536 149.24 359.176 149.88C359.816 150.52 360.242 151.267 360.456 152.12C360.722 152.973 360.856 153.853 360.856 154.76C360.856 155.293 360.802 156.2 360.696 157.48C360.642 158.707 360.562 160.227 360.456 162.04C360.349 163.8 360.189 165.8 359.976 168.04C359.816 170.28 359.656 172.627 359.496 175.08L372.296 163.4C372.776 162.973 373.202 162.68 373.576 162.52C374.002 162.36 374.322 162.28 374.536 162.28C375.122 162.28 375.762 162.653 376.456 163.4C377.149 164.147 377.789 165.027 378.376 166.04C379.016 167 379.522 168.013 379.896 169.08C380.322 170.093 380.536 170.92 380.536 171.56C380.536 173.107 379.282 174.733 376.776 176.44C374.322 178.147 370.589 180.067 365.576 182.2C367.816 184.707 369.949 187 371.976 189.08C374.002 191.16 375.762 193 377.256 194.6C378.802 196.2 380.029 197.507 380.936 198.52C381.842 199.533 382.296 200.2 382.296 200.52ZM385.021 197.16C385.021 192.36 387.181 188.6 391.501 185.88C395.821 183.16 402.194 181.693 410.621 181.48C410.674 180.893 410.701 180.413 410.701 180.04C410.754 179.613 410.781 179.107 410.781 178.52C410.781 176.813 410.461 175.453 409.821 174.44C409.181 173.427 407.847 172.92 405.821 172.92C404.701 172.92 403.794 173.08 403.101 173.4C402.407 173.72 401.847 174.173 401.421 174.76C400.994 175.293 400.647 175.96 400.381 176.76C400.114 177.56 399.874 178.44 399.661 179.4C399.554 179.88 399.314 180.2 398.941 180.36C398.567 180.467 397.981 180.52 397.181 180.52C391.741 180.52 389.021 178.467 389.021 174.36C389.021 172.707 389.394 171.133 390.141 169.64C390.941 168.147 392.087 166.867 393.581 165.8C395.127 164.68 397.047 163.8 399.341 163.16C401.634 162.52 404.301 162.2 407.341 162.2C413.261 162.2 417.554 163.427 420.221 165.88C422.887 168.333 424.221 171.8 424.221 176.28C424.221 176.867 424.141 177.933 423.981 179.48C423.874 180.973 423.714 182.573 423.501 184.28C423.341 185.933 423.181 187.507 423.021 189C422.914 190.493 422.861 191.533 422.861 192.12C422.861 193.453 423.101 194.413 423.581 195C424.061 195.533 424.594 195.907 425.181 196.12C425.821 196.333 426.381 196.493 426.861 196.6C427.341 196.707 427.581 196.973 427.581 197.4C427.581 198.573 427.421 199.773 427.101 201C426.781 202.227 426.247 203.347 425.501 204.36C424.807 205.373 423.821 206.2 422.541 206.84C421.314 207.48 419.794 207.8 417.981 207.8C415.421 207.8 413.501 207.187 412.221 205.96C410.941 204.733 410.087 203.027 409.661 200.84C408.381 202.707 406.701 204.333 404.621 205.72C402.594 207.107 399.927 207.8 396.621 207.8C395.021 207.8 393.501 207.613 392.061 207.24C390.674 206.867 389.447 206.253 388.381 205.4C387.367 204.547 386.541 203.453 385.901 202.12C385.314 200.733 385.021 199.08 385.021 197.16ZM409.901 188.04C408.514 188.04 407.154 188.147 405.821 188.36C404.487 188.573 403.287 188.92 402.221 189.4C401.207 189.827 400.381 190.413 399.741 191.16C399.101 191.907 398.781 192.813 398.781 193.88C398.781 195.107 399.154 195.96 399.901 196.44C400.701 196.92 401.554 197.16 402.461 197.16C403.314 197.16 404.167 196.973 405.021 196.6C405.874 196.227 406.621 195.667 407.261 194.92C407.954 194.12 408.541 193.16 409.021 192.04C409.501 190.92 409.794 189.587 409.901 188.04ZM458.339 182.12C458.019 182.12 457.645 182.12 457.219 182.12C456.845 182.067 456.472 182.013 456.099 181.96C455.725 181.853 455.405 181.747 455.139 181.64C454.872 181.48 454.739 181.293 454.739 181.08C454.739 180.387 454.765 179.747 454.819 179.16C454.872 178.573 454.899 177.96 454.899 177.32C454.899 176.147 454.739 175.187 454.419 174.44C454.099 173.693 453.459 173.32 452.499 173.32C451.005 173.32 449.752 174.307 448.739 176.28C447.779 178.2 447.165 181.107 446.899 185C446.792 186.707 446.632 188.653 446.419 190.84C446.259 192.973 446.099 195.053 445.939 197.08C445.779 199.053 445.645 200.813 445.539 202.36C445.432 203.907 445.379 204.92 445.379 205.4C445.379 205.933 445.192 206.333 444.819 206.6C444.445 206.867 444.045 207 443.619 207H440.739C439.085 207 437.725 206.84 436.659 206.52C435.645 206.147 434.819 205.64 434.179 205C433.592 204.36 433.165 203.587 432.899 202.68C432.685 201.72 432.579 200.627 432.579 199.4C432.579 198.6 432.605 197.48 432.659 196.04C432.765 194.547 432.925 192.52 433.139 189.96C433.352 187.347 433.592 184.067 433.859 180.12C434.179 176.12 434.552 171.187 434.979 165.32C435.085 163.773 435.645 163 436.659 163H439.779C441.272 163 442.525 163.16 443.539 163.48C444.552 163.8 445.379 164.253 446.019 164.84C446.659 165.373 447.112 166.013 447.379 166.76C447.699 167.507 447.912 168.28 448.019 169.08C448.659 167.853 449.405 166.813 450.259 165.96C451.165 165.053 452.099 164.333 453.059 163.8C454.019 163.213 455.005 162.813 456.019 162.6C457.032 162.333 457.965 162.2 458.819 162.2C459.832 162.2 460.845 162.387 461.859 162.76C462.925 163.133 463.885 163.693 464.739 164.44C465.592 165.187 466.259 166.147 466.739 167.32C467.272 168.493 467.539 169.88 467.539 171.48C467.539 172.92 467.325 174.28 466.899 175.56C466.472 176.84 465.859 177.987 465.059 179C464.259 179.96 463.272 180.733 462.099 181.32C460.979 181.853 459.725 182.12 458.339 182.12ZM487.98 173.8C487.82 175.827 487.633 177.827 487.42 179.8C487.26 181.773 487.1 183.64 486.94 185.4C486.78 187.16 486.647 188.733 486.54 190.12C486.487 191.507 486.46 192.573 486.46 193.32C486.46 194.707 486.62 195.64 486.94 196.12C487.26 196.547 487.793 196.76 488.54 196.76C489.127 196.76 489.633 196.653 490.06 196.44C490.487 196.227 490.887 195.987 491.26 195.72C491.633 195.453 491.953 195.213 492.22 195C492.54 194.787 492.887 194.68 493.26 194.68C493.633 194.68 493.98 194.893 494.3 195.32C494.62 195.747 494.78 196.733 494.78 198.28C494.78 201.213 493.98 203.533 492.38 205.24C490.78 206.947 488.033 207.8 484.14 207.8C480.3 207.8 477.447 206.92 475.58 205.16C473.767 203.347 472.86 200.6 472.86 196.92C472.86 196.12 472.887 195.187 472.94 194.12C473.047 193 473.18 191.56 473.34 189.8C473.5 188.04 473.687 185.88 473.9 183.32C474.167 180.76 474.433 177.587 474.7 173.8H470.46C470.033 173.8 469.767 173.72 469.66 173.56C469.607 173.347 469.58 173.053 469.58 172.68L469.82 168.6C469.873 167.907 469.953 167.24 470.06 166.6C470.22 165.907 470.487 165.293 470.86 164.76C471.287 164.227 471.873 163.8 472.62 163.48C473.367 163.16 474.353 163 475.58 163C475.953 162.04 476.38 160.893 476.86 159.56C477.34 158.227 477.82 156.947 478.3 155.72C478.78 154.44 479.233 153.373 479.66 152.52C480.14 151.667 480.567 151.24 480.94 151.24H483.26C485.5 151.24 487.047 151.933 487.9 153.32C488.753 154.707 489.18 156.36 489.18 158.28C489.18 159.347 489.1 160.92 488.94 163H497.34C498.193 163 498.62 163.373 498.62 164.12L498.3 168.44C498.193 170.04 497.74 171.347 496.94 172.36C496.193 173.32 494.62 173.8 492.22 173.8H487.98ZM500.333 197.16C500.333 192.36 502.493 188.6 506.813 185.88C511.133 183.16 517.506 181.693 525.933 181.48C525.986 180.893 526.013 180.413 526.013 180.04C526.066 179.613 526.093 179.107 526.093 178.52C526.093 176.813 525.773 175.453 525.133 174.44C524.493 173.427 523.16 172.92 521.133 172.92C520.013 172.92 519.106 173.08 518.413 173.4C517.72 173.72 517.16 174.173 516.733 174.76C516.306 175.293 515.96 175.96 515.693 176.76C515.426 177.56 515.186 178.44 514.973 179.4C514.866 179.88 514.626 180.2 514.253 180.36C513.88 180.467 513.293 180.52 512.493 180.52C507.053 180.52 504.333 178.467 504.333 174.36C504.333 172.707 504.706 171.133 505.453 169.64C506.253 168.147 507.4 166.867 508.893 165.8C510.44 164.68 512.36 163.8 514.653 163.16C516.946 162.52 519.613 162.2 522.653 162.2C528.573 162.2 532.866 163.427 535.533 165.88C538.2 168.333 539.533 171.8 539.533 176.28C539.533 176.867 539.453 177.933 539.293 179.48C539.186 180.973 539.026 182.573 538.813 184.28C538.653 185.933 538.493 187.507 538.333 189C538.226 190.493 538.173 191.533 538.173 192.12C538.173 193.453 538.413 194.413 538.893 195C539.373 195.533 539.906 195.907 540.493 196.12C541.133 196.333 541.693 196.493 542.173 196.6C542.653 196.707 542.893 196.973 542.893 197.4C542.893 198.573 542.733 199.773 542.413 201C542.093 202.227 541.56 203.347 540.813 204.36C540.12 205.373 539.133 206.2 537.853 206.84C536.626 207.48 535.106 207.8 533.293 207.8C530.733 207.8 528.813 207.187 527.533 205.96C526.253 204.733 525.4 203.027 524.973 200.84C523.693 202.707 522.013 204.333 519.933 205.72C517.906 207.107 515.24 207.8 511.933 207.8C510.333 207.8 508.813 207.613 507.373 207.24C505.986 206.867 504.76 206.253 503.693 205.4C502.68 204.547 501.853 203.453 501.213 202.12C500.626 200.733 500.333 199.08 500.333 197.16ZM525.213 188.04C523.826 188.04 522.466 188.147 521.133 188.36C519.8 188.573 518.6 188.92 517.533 189.4C516.52 189.827 515.693 190.413 515.053 191.16C514.413 191.907 514.093 192.813 514.093 193.88C514.093 195.107 514.466 195.96 515.213 196.44C516.013 196.92 516.866 197.16 517.773 197.16C518.626 197.16 519.48 196.973 520.333 196.6C521.186 196.227 521.933 195.667 522.573 194.92C523.266 194.12 523.853 193.16 524.333 192.04C524.813 190.92 525.106 189.587 525.213 188.04ZM552.131 207.8C549.945 207.8 548.398 207.267 547.491 206.2C546.638 205.133 546.211 203.827 546.211 202.28C546.211 199.027 546.931 196.627 548.371 195.08C549.865 193.533 551.971 192.76 554.691 192.76C555.865 192.76 556.825 192.973 557.571 193.4C558.371 193.827 558.985 194.44 559.411 195.24C559.891 195.987 560.211 196.893 560.371 197.96C560.585 198.973 560.691 200.093 560.691 201.32C560.691 203.88 560.398 206.387 559.811 208.84C559.278 211.293 558.531 213.48 557.571 215.4C556.611 217.32 555.465 218.867 554.131 220.04C552.798 221.213 551.358 221.8 549.811 221.8C549.011 221.8 548.345 221.64 547.811 221.32C547.331 221.053 546.958 220.68 546.691 220.2C546.425 219.72 546.238 219.187 546.131 218.6C546.078 218.013 546.051 217.453 546.051 216.92C546.051 216.6 546.345 216.173 546.931 215.64C547.571 215.107 548.265 214.467 549.011 213.72C549.758 212.973 550.451 212.093 551.091 211.08C551.731 210.12 552.078 209.027 552.131 207.8Z" fill="white"/>
<path d="M151.929 239.4C153.462 239.733 154.746 240.5 155.779 241.7C156.846 242.9 157.379 244.383 157.379 246.15C157.379 248.583 156.612 250.5 155.079 251.9C153.546 253.3 151.346 254 148.479 254H138.229C137.962 254 137.829 253.85 137.829 253.55V226.65C137.829 226.35 137.962 226.2 138.229 226.2H147.629C150.329 226.2 152.429 226.817 153.929 228.05C155.429 229.283 156.179 231.033 156.179 233.3C156.179 235.033 155.746 236.367 154.879 237.3C154.012 238.233 153.029 238.933 151.929 239.4ZM141.629 237.75H148.179C149.579 237.75 150.629 237.367 151.329 236.6C152.062 235.8 152.429 234.783 152.429 233.55C152.429 232.317 152.046 231.35 151.279 230.65C150.512 229.95 149.362 229.6 147.829 229.6H141.629V237.75ZM141.629 250.6H147.979C148.812 250.6 149.646 250.5 150.479 250.3C151.312 250.1 152.012 249.667 152.579 249C153.146 248.3 153.429 247.233 153.429 245.8C153.429 244.467 152.996 243.35 152.129 242.45C151.262 241.55 149.896 241.1 148.029 241.1H141.629V250.6ZM175.495 251.4C174.762 252.433 173.879 253.2 172.845 253.7C171.812 254.2 170.662 254.45 169.395 254.45C167.562 254.45 165.995 254.017 164.695 253.15C163.429 252.283 162.462 251.117 161.795 249.65C161.129 248.183 160.795 246.567 160.795 244.8C160.795 242.933 161.162 241.283 161.895 239.85C162.629 238.383 163.645 237.233 164.945 236.4C166.279 235.567 167.812 235.15 169.545 235.15C170.945 235.15 172.162 235.417 173.195 235.95C174.262 236.483 175.095 237.183 175.695 238.05C175.862 237.183 176.195 236.567 176.695 236.2C177.195 235.8 177.829 235.6 178.595 235.6H178.845C179.079 235.6 179.195 235.75 179.195 236.05V253.55C179.195 253.85 179.079 254 178.845 254H175.895C175.629 254 175.495 253.85 175.495 253.55V251.4ZM169.945 250.95C170.779 250.95 171.612 250.783 172.445 250.45C173.312 250.083 174.029 249.45 174.595 248.55C175.195 247.65 175.495 246.4 175.495 244.8C175.495 243.167 175.195 241.917 174.595 241.05C174.029 240.15 173.329 239.533 172.495 239.2C171.662 238.867 170.862 238.7 170.095 238.7C168.662 238.7 167.395 239.2 166.295 240.2C165.195 241.2 164.645 242.733 164.645 244.8C164.645 246.3 164.912 247.5 165.445 248.4C166.012 249.3 166.695 249.95 167.495 250.35C168.329 250.75 169.145 250.95 169.945 250.95ZM188.095 238.1C188.628 237.267 189.395 236.583 190.395 236.05C191.395 235.483 192.561 235.2 193.895 235.2C196.228 235.2 198.061 235.917 199.395 237.35C200.728 238.783 201.395 240.733 201.395 243.2V253.55C201.395 253.85 201.261 254 200.995 254H198.045C197.778 254 197.645 253.85 197.645 253.55V243.9C197.645 242.133 197.228 240.817 196.395 239.95C195.561 239.083 194.445 238.65 193.045 238.65C191.545 238.65 190.361 239.1 189.495 240C188.628 240.867 188.195 242.233 188.195 244.1V253.55C188.195 253.85 188.078 254 187.845 254H184.895C184.628 254 184.495 253.85 184.495 253.55V236.05C184.495 235.75 184.628 235.6 184.895 235.6H185.145C185.911 235.6 186.561 235.817 187.095 236.25C187.628 236.683 187.961 237.3 188.095 238.1ZM210.315 247.25V253.55C210.315 253.85 210.198 254 209.965 254H207.015C206.748 254 206.615 253.85 206.615 253.55V226.65C206.615 226.35 206.748 226.2 207.015 226.2H207.265C209.298 226.2 210.315 227.35 210.315 229.65V242.8L216.815 236.1C217.182 235.767 217.565 235.6 217.965 235.6H221.065C221.232 235.6 221.315 235.65 221.315 235.75C221.348 235.85 221.332 235.933 221.265 236L215.165 242.3L222.115 253.55C222.182 253.65 222.182 253.75 222.115 253.85C222.082 253.95 221.998 254 221.865 254H218.715C218.282 254 217.965 253.817 217.765 253.45L212.615 244.95L210.315 247.25ZM232.146 249.95C232.146 249.417 232.329 249.15 232.696 249.15C232.829 249.15 232.962 249.233 233.096 249.4C233.662 250.033 234.212 250.517 234.746 250.85C235.312 251.15 235.912 251.3 236.546 251.3C237.579 251.3 238.346 251 238.846 250.4C239.379 249.8 239.646 249.05 239.646 248.15V226.65C239.646 226.35 239.779 226.2 240.046 226.2H240.396C241.362 226.2 242.112 226.5 242.646 227.1C243.179 227.667 243.446 228.55 243.446 229.75V248.3C243.446 250.133 242.929 251.633 241.896 252.8C240.862 253.933 239.362 254.5 237.396 254.5C235.862 254.5 234.596 254.05 233.596 253.15C232.629 252.25 232.146 251.183 232.146 249.95ZM262.995 251.4C262.262 252.433 261.379 253.2 260.345 253.7C259.312 254.2 258.162 254.45 256.895 254.45C255.062 254.45 253.495 254.017 252.195 253.15C250.929 252.283 249.962 251.117 249.295 249.65C248.629 248.183 248.295 246.567 248.295 244.8C248.295 242.933 248.662 241.283 249.395 239.85C250.129 238.383 251.145 237.233 252.445 236.4C253.779 235.567 255.312 235.15 257.045 235.15C258.445 235.15 259.662 235.417 260.695 235.95C261.762 236.483 262.595 237.183 263.195 238.05C263.362 237.183 263.695 236.567 264.195 236.2C264.695 235.8 265.329 235.6 266.095 235.6H266.345C266.579 235.6 266.695 235.75 266.695 236.05V253.55C266.695 253.85 266.579 254 266.345 254H263.395C263.129 254 262.995 253.85 262.995 253.55V251.4ZM257.445 250.95C258.279 250.95 259.112 250.783 259.945 250.45C260.812 250.083 261.529 249.45 262.095 248.55C262.695 247.65 262.995 246.4 262.995 244.8C262.995 243.167 262.695 241.917 262.095 241.05C261.529 240.15 260.829 239.533 259.995 239.2C259.162 238.867 258.362 238.7 257.595 238.7C256.162 238.7 254.895 239.2 253.795 240.2C252.695 241.2 252.145 242.733 252.145 244.8C252.145 246.3 252.412 247.5 252.945 248.4C253.512 249.3 254.195 249.95 254.995 250.35C255.829 250.75 256.645 250.95 257.445 250.95ZM275.745 247.25V253.55C275.745 253.85 275.628 254 275.395 254H272.445C272.178 254 272.045 253.85 272.045 253.55V226.65C272.045 226.35 272.178 226.2 272.445 226.2H272.695C274.728 226.2 275.745 227.35 275.745 229.65V242.8L282.245 236.1C282.611 235.767 282.995 235.6 283.395 235.6H286.495C286.661 235.6 286.745 235.65 286.745 235.75C286.778 235.85 286.761 235.933 286.695 236L280.595 242.3L287.545 253.55C287.611 253.65 287.611 253.75 287.545 253.85C287.511 253.95 287.428 254 287.295 254H284.145C283.711 254 283.395 253.817 283.195 253.45L278.045 244.95L275.745 247.25ZM304.402 251.4C303.668 252.433 302.785 253.2 301.752 253.7C300.718 254.2 299.568 254.45 298.302 254.45C296.468 254.45 294.902 254.017 293.602 253.15C292.335 252.283 291.368 251.117 290.702 249.65C290.035 248.183 289.702 246.567 289.702 244.8C289.702 242.933 290.068 241.283 290.802 239.85C291.535 238.383 292.552 237.233 293.852 236.4C295.185 235.567 296.718 235.15 298.452 235.15C299.852 235.15 301.068 235.417 302.102 235.95C303.168 236.483 304.002 237.183 304.602 238.05C304.768 237.183 305.102 236.567 305.602 236.2C306.102 235.8 306.735 235.6 307.502 235.6H307.752C307.985 235.6 308.102 235.75 308.102 236.05V253.55C308.102 253.85 307.985 254 307.752 254H304.802C304.535 254 304.402 253.85 304.402 253.55V251.4ZM298.852 250.95C299.685 250.95 300.518 250.783 301.352 250.45C302.218 250.083 302.935 249.45 303.502 248.55C304.102 247.65 304.402 246.4 304.402 244.8C304.402 243.167 304.102 241.917 303.502 241.05C302.935 240.15 302.235 239.533 301.402 239.2C300.568 238.867 299.768 238.7 299.002 238.7C297.568 238.7 296.302 239.2 295.202 240.2C294.102 241.2 293.552 242.733 293.552 244.8C293.552 246.3 293.818 247.5 294.352 248.4C294.918 249.3 295.602 249.95 296.402 250.35C297.235 250.75 298.052 250.95 298.852 250.95ZM317.051 238.25C317.651 237.217 318.367 236.517 319.201 236.15C320.034 235.783 321.117 235.6 322.451 235.6H323.001C323.267 235.6 323.401 235.733 323.401 236V238.75C323.401 239.05 323.267 239.2 323.001 239.2H321.801C320.034 239.2 318.817 239.65 318.151 240.55C317.484 241.45 317.151 242.867 317.151 244.8V253.55C317.151 253.85 317.034 254 316.801 254H313.851C313.584 254 313.451 253.85 313.451 253.55V236C313.451 235.733 313.584 235.6 313.851 235.6H314.101C314.934 235.6 315.601 235.833 316.101 236.3C316.634 236.733 316.951 237.383 317.051 238.25ZM329.414 238.9H326.014C325.748 238.9 325.614 238.767 325.614 238.5V236C325.614 235.733 325.748 235.6 326.014 235.6H329.414V229.4C329.414 229.1 329.531 228.95 329.764 228.95H330.014C330.981 228.95 331.731 229.25 332.264 229.85C332.831 230.417 333.114 231.283 333.114 232.45V235.6H336.964C337.198 235.6 337.314 235.733 337.314 236V238.5C337.314 238.767 337.198 238.9 336.964 238.9H333.114V253.55C333.114 253.85 332.981 254 332.714 254H329.764C329.531 254 329.414 253.85 329.414 253.55V238.9ZM354.89 251.4C354.157 252.433 353.273 253.2 352.24 253.7C351.207 254.2 350.057 254.45 348.79 254.45C346.957 254.45 345.39 254.017 344.09 253.15C342.823 252.283 341.857 251.117 341.19 249.65C340.523 248.183 340.19 246.567 340.19 244.8C340.19 242.933 340.557 241.283 341.29 239.85C342.023 238.383 343.04 237.233 344.34 236.4C345.673 235.567 347.207 235.15 348.94 235.15C350.34 235.15 351.557 235.417 352.59 235.95C353.657 236.483 354.49 237.183 355.09 238.05C355.257 237.183 355.59 236.567 356.09 236.2C356.59 235.8 357.223 235.6 357.99 235.6H358.24C358.473 235.6 358.59 235.75 358.59 236.05V253.55C358.59 253.85 358.473 254 358.24 254H355.29C355.023 254 354.89 253.85 354.89 253.55V251.4ZM349.34 250.95C350.173 250.95 351.007 250.783 351.84 250.45C352.707 250.083 353.423 249.45 353.99 248.55C354.59 247.65 354.89 246.4 354.89 244.8C354.89 243.167 354.59 241.917 353.99 241.05C353.423 240.15 352.723 239.533 351.89 239.2C351.057 238.867 350.257 238.7 349.49 238.7C348.057 238.7 346.79 239.2 345.69 240.2C344.59 241.2 344.04 242.733 344.04 244.8C344.04 246.3 344.307 247.5 344.84 248.4C345.407 249.3 346.09 249.95 346.89 250.35C347.723 250.75 348.54 250.95 349.34 250.95ZM381.021 249.05L386.871 226.8C386.971 226.4 387.221 226.2 387.621 226.2H388.621C389.421 226.2 390.054 226.367 390.521 226.7C391.021 227.033 391.404 227.75 391.671 228.85L397.321 249.05L402.721 226.8C402.821 226.4 403.088 226.2 403.521 226.2H406.371C406.671 226.2 406.771 226.35 406.671 226.65L399.621 253.55C399.488 253.85 399.288 254 399.021 254H395.821C395.521 254 395.338 253.85 395.271 253.55L388.971 231.3L382.921 253.55C382.788 253.85 382.604 254 382.371 254H379.121C378.788 254 378.588 253.85 378.521 253.55L371.621 226.7C371.554 226.367 371.671 226.2 371.971 226.2H372.821C373.654 226.2 374.338 226.367 374.871 226.7C375.404 227.033 375.821 227.75 376.121 228.85L381.021 249.05ZM418.033 254.5C415.299 254.5 413.249 253.7 411.883 252.1C410.516 250.467 409.833 248.233 409.833 245.4V236.05C409.833 235.75 409.966 235.6 410.233 235.6H410.483C412.516 235.6 413.533 236.75 413.533 239.05V245.8C413.533 247.567 413.933 248.883 414.733 249.75C415.566 250.617 416.666 251.05 418.033 251.05C419.399 251.05 420.483 250.667 421.283 249.9C422.116 249.1 422.533 247.783 422.533 245.95V236.05C422.533 235.75 422.666 235.6 422.933 235.6H423.183C425.249 235.6 426.283 236.75 426.283 239.05V245.65C426.283 248.383 425.583 250.55 424.183 252.15C422.816 253.717 420.766 254.5 418.033 254.5ZM430.922 230.65C430.922 229.983 431.139 229.433 431.572 229C432.005 228.567 432.539 228.35 433.172 228.35C433.805 228.35 434.339 228.567 434.772 229C435.205 229.433 435.422 229.983 435.422 230.65C435.422 231.283 435.205 231.817 434.772 232.25C434.339 232.683 433.805 232.9 433.172 232.9C432.539 232.9 432.005 232.683 431.572 232.25C431.139 231.817 430.922 231.283 430.922 230.65ZM426.572 258.05C427.005 258.383 427.422 258.667 427.822 258.9C428.222 259.167 428.689 259.3 429.222 259.3C430.022 259.3 430.572 259.017 430.872 258.45C431.172 257.917 431.322 257.133 431.322 256.1V236C431.322 235.733 431.439 235.6 431.672 235.6H431.922C432.889 235.6 433.639 235.883 434.172 236.45C434.739 237.017 435.022 237.883 435.022 239.05V256.4C435.022 258.433 434.605 259.967 433.772 261C432.939 262.033 431.789 262.55 430.322 262.55C429.255 262.55 428.389 262.317 427.722 261.85C427.022 261.383 426.522 260.833 426.222 260.2C425.889 259.567 425.722 259.033 425.722 258.6C425.722 258.133 425.872 257.9 426.172 257.9C426.339 257.9 426.472 257.95 426.572 258.05ZM448.306 254.5C445.573 254.5 443.523 253.7 442.156 252.1C440.79 250.467 440.106 248.233 440.106 245.4V236.05C440.106 235.75 440.24 235.6 440.506 235.6H440.756C442.79 235.6 443.806 236.75 443.806 239.05V245.8C443.806 247.567 444.206 248.883 445.006 249.75C445.84 250.617 446.94 251.05 448.306 251.05C449.673 251.05 450.756 250.667 451.556 249.9C452.39 249.1 452.806 247.783 452.806 245.95V236.05C452.806 235.75 452.94 235.6 453.206 235.6H453.456C455.523 235.6 456.556 236.75 456.556 239.05V245.65C456.556 248.383 455.856 250.55 454.456 252.15C453.09 253.717 451.04 254.5 448.306 254.5ZM475.545 238V226.65C475.545 226.35 475.679 226.2 475.945 226.2H476.195C477.162 226.2 477.912 226.483 478.445 227.05C479.012 227.617 479.295 228.483 479.295 229.65V253.55C479.295 253.85 479.162 254 478.895 254H475.945C475.679 254 475.545 253.85 475.545 253.55V251.4C474.845 252.433 473.962 253.2 472.895 253.7C471.862 254.2 470.712 254.45 469.445 254.45C467.645 254.45 466.095 254.017 464.795 253.15C463.529 252.283 462.545 251.117 461.845 249.65C461.179 248.183 460.845 246.567 460.845 244.8C460.845 242.933 461.212 241.283 461.945 239.85C462.679 238.383 463.695 237.233 464.995 236.4C466.329 235.567 467.895 235.15 469.695 235.15C470.962 235.15 472.112 235.4 473.145 235.9C474.179 236.4 474.979 237.1 475.545 238ZM469.995 250.95C470.829 250.95 471.662 250.783 472.495 250.45C473.362 250.083 474.079 249.45 474.645 248.55C475.245 247.65 475.545 246.4 475.545 244.8C475.545 243.167 475.245 241.917 474.645 241.05C474.079 240.15 473.379 239.533 472.545 239.2C471.712 238.867 470.912 238.7 470.145 238.7C468.712 238.7 467.445 239.2 466.345 240.2C465.245 241.2 464.695 242.733 464.695 244.8C464.695 246.3 464.962 247.5 465.495 248.4C466.062 249.3 466.745 249.95 467.545 250.35C468.379 250.75 469.195 250.95 469.995 250.95ZM488.245 247.25V253.55C488.245 253.85 488.128 254 487.895 254H484.945C484.678 254 484.545 253.85 484.545 253.55V226.65C484.545 226.35 484.678 226.2 484.945 226.2H485.195C487.228 226.2 488.245 227.35 488.245 229.65V242.8L494.745 236.1C495.111 235.767 495.495 235.6 495.895 235.6H498.995C499.161 235.6 499.245 235.65 499.245 235.75C499.278 235.85 499.261 235.933 499.195 236L493.095 242.3L500.045 253.55C500.111 253.65 500.111 253.75 500.045 253.85C500.011 253.95 499.928 254 499.795 254H496.645C496.211 254 495.895 253.817 495.695 253.45L490.545 244.95L488.245 247.25ZM516.902 251.4C516.168 252.433 515.285 253.2 514.252 253.7C513.218 254.2 512.068 254.45 510.802 254.45C508.968 254.45 507.402 254.017 506.102 253.15C504.835 252.283 503.868 251.117 503.202 249.65C502.535 248.183 502.202 246.567 502.202 244.8C502.202 242.933 502.568 241.283 503.302 239.85C504.035 238.383 505.052 237.233 506.352 236.4C507.685 235.567 509.218 235.15 510.952 235.15C512.352 235.15 513.568 235.417 514.602 235.95C515.668 236.483 516.502 237.183 517.102 238.05C517.268 237.183 517.602 236.567 518.102 236.2C518.602 235.8 519.235 235.6 520.002 235.6H520.252C520.485 235.6 520.602 235.75 520.602 236.05V253.55C520.602 253.85 520.485 254 520.252 254H517.302C517.035 254 516.902 253.85 516.902 253.55V251.4ZM511.352 250.95C512.185 250.95 513.018 250.783 513.852 250.45C514.718 250.083 515.435 249.45 516.002 248.55C516.602 247.65 516.902 246.4 516.902 244.8C516.902 243.167 516.602 241.917 516.002 241.05C515.435 240.15 514.735 239.533 513.902 239.2C513.068 238.867 512.268 238.7 511.502 238.7C510.068 238.7 508.802 239.2 507.702 240.2C506.602 241.2 506.052 242.733 506.052 244.8C506.052 246.3 506.318 247.5 506.852 248.4C507.418 249.3 508.102 249.95 508.902 250.35C509.735 250.75 510.552 250.95 511.352 250.95ZM529.501 238.1C530.034 237.267 530.801 236.583 531.801 236.05C532.801 235.483 533.967 235.2 535.301 235.2C537.634 235.2 539.467 235.917 540.801 237.35C542.134 238.783 542.801 240.733 542.801 243.2V253.55C542.801 253.85 542.667 254 542.401 254H539.451C539.184 254 539.051 253.85 539.051 253.55V243.9C539.051 242.133 538.634 240.817 537.801 239.95C536.967 239.083 535.851 238.65 534.451 238.65C532.951 238.65 531.767 239.1 530.901 240C530.034 240.867 529.601 242.233 529.601 244.1V253.55C529.601 253.85 529.484 254 529.251 254H526.301C526.034 254 525.901 253.85 525.901 253.55V236.05C525.901 235.75 526.034 235.6 526.301 235.6H526.551C527.317 235.6 527.967 235.817 528.501 236.25C529.034 236.683 529.367 237.3 529.501 238.1Z" fill="white"/>
<path d="M70.4766 284H89.9766V312.9L100.677 284H121.677L108.277 318.9L120.977 356H99.9766L89.9766 325.5V356H70.4766V284ZM122.52 284H170.42L167.42 300H147.52V311H166.22L163.22 327H147.52V340H171.12L168.12 356H128.02V297.7L122.52 284ZM195.117 339.7C197.651 339.7 199.551 339.333 200.817 338.6C202.084 337.867 202.717 336.667 202.717 335C202.717 333.867 202.417 332.967 201.817 332.3C201.217 331.633 200.151 330.967 198.617 330.3L188.017 325.4C184.084 323.6 181.051 321.2 178.917 318.2C176.784 315.2 175.717 310.833 175.717 305.1C175.717 297.767 177.617 292.3 181.417 288.7C185.284 285.033 191.651 283.167 200.517 283.1C204.184 283.1 207.517 283.267 210.517 283.6C213.517 283.933 215.917 284.3 217.717 284.7C219.517 285.033 220.417 285.2 220.417 285.2L218.417 301.3C218.417 301.3 217.584 301.2 215.917 301C214.317 300.8 212.317 300.633 209.917 300.5C207.517 300.3 205.184 300.2 202.917 300.2C200.517 300.2 198.684 300.567 197.417 301.3C196.217 301.967 195.617 303.267 195.617 305.2C195.617 306.267 196.084 307.167 197.017 307.9C197.951 308.567 199.251 309.267 200.917 310L209.417 313.7C213.951 315.7 217.251 318.2 219.317 321.2C221.384 324.133 222.417 328.333 222.417 333.8C222.417 341.2 220.484 346.9 216.617 350.9C212.751 354.9 206.384 356.933 197.517 357C193.117 357 189.017 356.7 185.217 356.1C181.417 355.567 178.051 354.933 175.117 354.2L177.117 338.1C177.117 338.1 177.917 338.233 179.517 338.5C181.184 338.767 183.384 339.033 186.117 339.3C188.851 339.567 191.851 339.7 195.117 339.7ZM223.984 284H271.884L268.884 300H248.984V311H267.684L264.684 327H248.984V340H272.584L269.584 356H229.484V297.7L223.984 284ZM321.505 300H308.305V356H288.705V300H274.105V284H324.505L321.505 300ZM340.253 346.3L338.353 356H317.453L331.853 293L329.553 283.2H359.753L375.453 356H354.753L352.853 346.3H340.253ZM342.253 330.8H350.753L346.553 304.6L342.253 330.8ZM403.361 284C409.228 284 414.128 284.767 418.061 286.3C421.994 287.767 424.928 290.267 426.861 293.8C428.861 297.267 429.861 302.033 429.861 308.1C429.861 313.167 429.094 317.333 427.561 320.6C426.028 323.8 423.694 326.367 420.561 328.3L432.761 356H411.061L403.161 332.6H399.961V356H380.461V297.7L374.961 284H403.361ZM399.961 319.2C403.028 319.2 405.294 318.433 406.761 316.9C408.228 315.367 408.961 312.667 408.961 308.8C408.961 305.733 408.694 303.467 408.161 302C407.628 300.467 406.694 299.433 405.361 298.9C404.094 298.367 402.294 298.1 399.961 298.1V319.2ZM456.562 346.3L454.662 356H433.762L448.162 293L445.862 283.2H476.062L491.762 356H471.062L469.162 346.3H456.562ZM458.562 330.8H467.062L462.862 304.6L458.562 330.8ZM515.546 346.3L513.646 356H492.746L507.146 293L504.846 283.2H535.046L550.746 356H530.046L528.146 346.3H515.546ZM517.546 330.8H526.046L521.846 304.6L517.546 330.8ZM576.454 284L590.554 325.1V284H609.554V356H586.154L573.354 318.6V356H554.354V294.3L550.254 284H576.454ZM82.4629 456V397.7L76.9629 384H105.763C111.763 384 116.73 384.833 120.663 386.5C124.596 388.1 127.53 390.833 129.463 394.7C131.396 398.567 132.363 403.833 132.363 410.5C132.363 419.7 130.163 426.333 125.763 430.4C121.363 434.467 114.696 436.5 105.763 436.5H101.963V456H82.4629ZM101.963 422.2C105.163 422.2 107.53 421.333 109.063 419.6C110.663 417.867 111.463 414.767 111.463 410.3C111.463 406.9 111.163 404.333 110.563 402.6C110.03 400.867 109.063 399.7 107.663 399.1C106.33 398.433 104.43 398.1 101.963 398.1V422.2ZM133.896 384H181.796L178.796 400H158.896V411H177.596L174.596 427H158.896V440H182.496L179.496 456H139.396V397.7L133.896 384ZM210.194 384L224.294 425.1V384H243.294V456H219.894L207.094 418.6V456H188.094V394.3L183.994 384H210.194ZM277.064 384C283.93 384 289.464 385.067 293.664 387.2C297.864 389.267 300.93 392.833 302.864 397.9C304.797 402.9 305.764 409.8 305.764 418.6C305.764 428.067 304.797 435.533 302.864 441C300.93 446.467 297.864 450.333 293.664 452.6C289.464 454.867 283.93 456 277.064 456H253.264V397.7L247.764 384H277.064ZM275.864 440C277.997 440 279.697 439.367 280.964 438.1C282.297 436.767 283.264 434.567 283.864 431.5C284.464 428.367 284.764 424.067 284.764 418.6C284.764 413.6 284.497 409.767 283.964 407.1C283.43 404.367 282.53 402.5 281.264 401.5C279.997 400.5 278.197 400 275.864 400H272.764V440H275.864ZM312.225 384H331.725V456H312.225V384ZM365.54 384C372.407 384 377.94 385.067 382.14 387.2C386.34 389.267 389.407 392.833 391.34 397.9C393.274 402.9 394.24 409.8 394.24 418.6C394.24 428.067 393.274 435.533 391.34 441C389.407 446.467 386.34 450.333 382.14 452.6C377.94 454.867 372.407 456 365.54 456H341.74V397.7L336.24 384H365.54ZM364.34 440C366.474 440 368.174 439.367 369.44 438.1C370.774 436.767 371.74 434.567 372.34 431.5C372.94 428.367 373.24 424.067 373.24 418.6C373.24 413.6 372.974 409.767 372.44 407.1C371.907 404.367 371.007 402.5 369.74 401.5C368.474 400.5 366.674 400 364.34 400H361.24V440H364.34ZM400.701 384H420.201V456H400.701V384ZM429.217 384H448.717V412.9L459.417 384H480.417L467.017 418.9L479.717 456H458.717L448.717 425.5V456H429.217V384ZM504.56 446.3L502.66 456H481.76L496.16 393L493.86 383.2H524.06L539.76 456H519.06L517.16 446.3H504.56ZM506.56 430.8H515.06L510.86 404.6L506.56 430.8ZM565.468 384L579.568 425.1V384H598.568V456H575.168L562.368 418.6V456H543.368V394.3L539.268 384H565.468Z" fill="white"/>
</svg>
